<?xml version="1.0" standalone="no"?>
<!DOCTYPE svg PUBLIC "-//W3C//DTD SVG 1.1//EN" "http://www.w3.org/Graphics/SVG/1.1/DTD/svg11.dtd" >
<svg xmlns="http://www.w3.org/2000/svg">
<metadata></metadata>
<defs>
<font id="lithos_pro_lightbold" horiz-adv-x="1583" >
<font-face units-per-em="2048" ascent="1489" descent="-559" />
<missing-glyph horiz-adv-x="552" />
<glyph horiz-adv-x="2048" />
<glyph horiz-adv-x="2048" />
<glyph unicode="&#xd;" horiz-adv-x="2048" />
<glyph unicode=" "  horiz-adv-x="552" />
<glyph unicode="&#x09;" horiz-adv-x="552" />
<glyph unicode="&#xa0;" horiz-adv-x="552" />
<glyph unicode="!" horiz-adv-x="651" d="M143 1460l383 -16q-7 -74 -56 -447t-62 -514l-209 -16q-36 599 -56 993zM158 0v264h286v-264h-286z" />
<glyph unicode="&#x22;" horiz-adv-x="727" d="M76 1479h227l-47 -441h-131zM426 1479h227l-47 -441h-131z" />
<glyph unicode="#" horiz-adv-x="1335" d="M113 350v201h229l37 237h-197v201h230l55 342h190l-55 -342h238l55 342h192l-55 -342h189v-201h-222l-36 -237h190v-201h-227l-54 -350h-194l53 350h-233l-54 -350h-194l53 350h-190zM535 551h235l35 237h-234z" />
<glyph unicode="$" d="M379 989q0 107 90.5 198.5t224.5 147.5l-6 293h217l-8 -223q29 11 111.5 28.5t115.5 18.5l21 -264q-98 0 -192 -21.5t-156 -62t-62 -88.5t45 -84t158 -90q131 -62 199.5 -136t68.5 -178q0 -66 -32 -131t-82.5 -114t-99.5 -83.5t-95 -56.5l8 -315h-217l6 262 q-38 -14 -136 -32.5t-138 -22.5l-29 260q119 5 227 35t171 72t63 83q0 56 -40 93.5t-146 91.5q-134 67 -210.5 143t-76.5 176z" />
<glyph unicode="%" horiz-adv-x="2048" d="M82 1030q0 74 28.5 146t83 133t144 99t199.5 38q194 0 300.5 -99t106.5 -292q0 -45 -13 -95t-45.5 -105t-80.5 -98t-127 -71.5t-176 -28.5q-106 0 -188.5 30t-132 82.5t-74.5 118.5t-25 142zM319 1042q0 -94 54 -154.5t133 -60.5q87 0 143 58.5t56 163.5 q0 114 -52.5 170.5t-132.5 56.5q-96 0 -148.5 -70t-52.5 -164zM516 68q60 94 449 733q59 97 166.5 272t166 271t84.5 145l174 -103q-177 -250 -430 -671q-225 -374 -440 -758zM1102 373q0 73 29 145t83 133t143 99t199 38q195 0 302.5 -100t107.5 -293q0 -45 -13 -94.5 t-46 -104t-81.5 -97.5t-127.5 -71t-176 -28q-206 0 -313 107t-107 266zM1339 377q0 -95 52.5 -155t134.5 -60q81 0 139.5 58.5t58.5 162.5q0 112 -52.5 169.5t-129.5 57.5q-95 0 -149 -69.5t-54 -163.5z" />
<glyph unicode="&#x26;" horiz-adv-x="1372" d="M37 301q0 216 274 447q-61 65 -92 122t-31 121q0 166 186 297t488 182l47 -288q-187 -12 -289 -60t-104 -125q1 -26 16 -55.5t32 -52.5t56.5 -61.5t62.5 -59t77 -68.5q122 -110 227 -186q56 77 131 215l236 -156q-114 -158 -172 -213q75 -64 204 -149l-196 -254 q-106 70 -234 180q-100 -84 -213.5 -127t-279.5 -43q-189 0 -307.5 92.5t-118.5 241.5zM354 385q0 -64 57.5 -109t137.5 -45q61 0 128 22.5t101 53.5q-87 59 -179.5 140t-145.5 137q-99 -99 -99 -199z" />
<glyph unicode="'" horiz-adv-x="411" d="M90 1479h232l-52 -441h-129z" />
<glyph unicode="(" horiz-adv-x="710" d="M72 682q0 138 30 270t76 232t105.5 186.5t114 142t104.5 89.5l153 -181q-32 -23 -65.5 -55t-80.5 -96.5t-82 -139.5t-60 -188t-25 -240q0 -108 25.5 -211t63 -177.5t83.5 -137.5t83.5 -98.5t66.5 -52.5l-162 -189q-51 33 -105 83.5t-113.5 129.5t-105.5 170.5t-76 213 t-30 249.5z" />
<glyph unicode=")" horiz-adv-x="710" d="M47 1413l162 189q51 -33 105 -83.5t113.5 -129.5t105.5 -170.5t76 -213t30 -249.5q0 -138 -30 -270t-76 -232.5t-105.5 -187t-114 -141.5t-104.5 -89l-154 182q32 23 65.5 54t80.5 95t82 138.5t60.5 188.5t25.5 241q0 108 -25.5 211t-63 177.5t-83.5 137.5t-83.5 99 t-66.5 53z" />
<glyph unicode="*" horiz-adv-x="753" d="M63 1085l11 181q16 -6 149.5 -49.5t143.5 -47.5q-44 -162 -72 -305l-154 72q12 21 75.5 103t64.5 83q-159 -23 -218 -37zM139 1393l146 104q5 -16 25.5 -62.5t43.5 -97.5t25 -55q2 7 21 54.5t37 94.5t24 68l151 -98q-22 -19 -125 -116t-110 -103q-96 92 -238 211z M389 1169q217 71 299 95l4 -174q-4 1 -102 16t-113 16q2 -4 31.5 -39.5t64.5 -78.5t48 -60l-164 -82q-4 18 -20.5 95t-30.5 140.5t-17 71.5z" />
<glyph unicode="+" horiz-adv-x="1220" d="M82 451v192h426v447h207v-447h426v-192h-426v-451h-207v451h-426z" />
<glyph unicode="," horiz-adv-x="600" d="M104 -207l134 508l260 -117l-275 -446z" />
<glyph unicode="-" horiz-adv-x="800" d="M68 844q92 -2 346.5 -3.5t312.5 -0.5l6 -224q-53 4 -315 -6t-340 -16z" />
<glyph unicode="." horiz-adv-x="600" d="M154 0v281h295v-281h-295z" />
<glyph unicode="/" horiz-adv-x="862" d="M-82 74q19 28 438 700q57 92 164 262.5t164 262.5t84 139l174 -103q-38 -49 -166.5 -243t-255.5 -402q-132 -213 -436 -731z" />
<glyph unicode="0" d="M68 698q0 199 93.5 362t263 258t382.5 95q164 0 298.5 -49.5t224 -137.5t138 -209.5t48.5 -264.5q0 -140 -50 -268t-142 -228.5t-235 -160.5t-315 -60q-148 0 -277.5 46.5t-224.5 130.5t-149.5 209.5t-54.5 276.5zM420 709q3 -175 106.5 -290.5t266.5 -115.5 q71 0 137 29.5t118.5 83.5t83.5 139t31 188q0 192 -105.5 297t-260.5 105q-72 0 -138 -27t-120 -79t-86.5 -137.5t-32.5 -192.5z" />
<glyph unicode="1" d="M358 1069q20 13 146.5 90t294 179.5t256.5 156.5l26 -14q0 -13 -4 -127t-7 -244.5t-3 -253.5v-313q-3 -434 4 -543h-354q0 16 2.5 107t5 225t2.5 254v454q-23 -15 -117.5 -76.5t-130.5 -86.5z" />
<glyph unicode="2" d="M182 51q62 49 100 79t115 96t127.5 116t115.5 123t104 134t66.5 132t27.5 133q0 76 -36.5 137t-92 99t-129.5 64.5t-142 38t-137 14.5l53 264q211 -20 375 -74t264.5 -130.5t151.5 -168t51 -193.5q0 -52 -10.5 -103t-32 -97.5t-44 -87t-58 -82.5t-61 -71t-66.5 -65.5 t-62 -54t-58.5 -48t-45.5 -36.5v-18l520 24v-292q-121 12 -936 16h-139z" />
<glyph unicode="3" d="M291 207q56 -4 123.5 2t138 25t128.5 48t95 76t37 103q0 57 -43.5 99t-110.5 63t-125 30.5t-108 10.5l-8 139q49 2 107.5 16t117.5 40.5t98 72.5t39 102q0 51 -40 91t-104.5 62.5t-135.5 34t-142 11.5l27 252q144 -4 276.5 -29.5t242.5 -71t175.5 -118.5t65.5 -164 q0 -104 -85 -198t-186 -136v-8q140 -33 228 -110t88 -193q0 -139 -120.5 -254.5t-323 -181.5t-441.5 -70z" />
<glyph unicode="4" d="M125 387l889 1108l157 -39l-2 -954l228 8l-15 -242l-215 8v-75q0 -83 4 -201h-323q0 9 5 90t5 133v51h-688zM510 502h360v481h-4q-93 -136 -356 -481z" />
<glyph unicode="5" d="M307 211q67 8 136.5 24.5t142 45.5t128.5 66t92 89t36 111q0 209 -486 237l90 660q111 2 393.5 11t377.5 15l-3 -290l-532 16l-31 -182q135 -16 237.5 -48t164 -72t99.5 -91.5t51.5 -101t13.5 -107.5q0 -140 -113 -275.5t-310 -234.5t-432 -133z" />
<glyph unicode="6" d="M242 459q0 147 59 307t155.5 298.5t218 256.5t249.5 195l170 -246q-97 -51 -203 -144t-172 -206q135 1 252 -33t198 -94t127 -143t45 -177q-2 -142 -81 -259t-210.5 -182t-285.5 -65q-229 0 -365 115q-157 131 -157 377zM586 446q0 -109 56.5 -180t150.5 -71q88 0 145 66 t57 167q0 133 -101.5 210.5t-260.5 74.5q-47 -103 -47 -267z" />
<glyph unicode="7" d="M258 1464q863 -19 1053 -18l14 -23q-67 -162 -307 -770t-273 -704l-323 141q31 55 256.5 540t249.5 544l-662 2z" />
<glyph unicode="8" d="M233 360q0 117 68.5 221t179.5 162q-106 45 -168.5 136t-62.5 196q0 73 34 143t99.5 129.5t176.5 96t251 35.5q247 0 382.5 -98.5t135.5 -266.5q0 -99 -61 -197.5t-183 -154.5q129 -51 197 -146t68 -221q0 -57 -18 -114t-61.5 -114.5t-107 -101t-164 -71t-223.5 -27.5 q-144 0 -251.5 31t-169.5 86t-92 124t-30 152zM567 389q0 -103 64 -167t155 -64q94 0 159 62t65 179q0 115 -64 180.5t-153 65.5q-104 0 -165 -73t-61 -183zM582 1063q0 -91 58.5 -155t141.5 -64q88 0 150.5 60t62.5 169q0 111 -58 163t-140 52q-101 0 -158 -63t-57 -162z " />
<glyph unicode="9" d="M250 969q2 100 48 194.5t121 164.5t178.5 111t215.5 40q241 0 385 -136q137 -128 137 -356q0 -148 -58 -308t-153.5 -298.5t-214 -255.5t-243.5 -195l-166 248q91 52 194.5 145.5t167.5 202.5q-181 -2 -321.5 55t-216 158.5t-74.5 229.5zM588 1010q0 -135 100 -211 t264 -68q45 99 45 258q0 122 -54.5 192t-149.5 70q-85 0 -145 -70t-60 -171z" />
<glyph unicode=":" horiz-adv-x="600" d="M158 33v272h286v-272h-286zM158 743v271h286v-271h-286z" />
<glyph unicode=";" horiz-adv-x="600" d="M94 -172l119 494l244 -111l-258 -434zM158 743v271h286v-271h-286z" />
<glyph unicode="&#x3c;" horiz-adv-x="1220" d="M123 444v199l975 447v-207l-776 -336v-4l776 -336v-207z" />
<glyph unicode="=" horiz-adv-x="1220" d="M82 227v193h1057v-193h-1057zM82 678v192h1057v-192h-1057z" />
<glyph unicode="&#x3e;" horiz-adv-x="1220" d="M123 0v209l751 334v4l-751 336v207l975 -457v-176z" />
<glyph unicode="?" horiz-adv-x="1001" d="M74 1239l47 248q227 -31 398.5 -93.5t272.5 -160t101 -217.5q0 -89 -38.5 -171t-99 -143.5t-141 -113.5t-159 -86t-158.5 -56l-72 199q46 14 93.5 37.5t98.5 60.5t83 93t32 120q0 69 -43 123t-114 86t-146 50t-155 24zM244 0v264h286v-264h-286z" />
<glyph unicode="@" horiz-adv-x="1628" d="M92 641q0 203 95.5 373.5t265 271t376.5 100.5q152 0 284 -50.5t224.5 -139t145.5 -213.5t53 -270q0 -165 -82 -273q-78 -106 -219 -106q-128 0 -199 96q-31 41 -53 80l-321 -6q-6 -12 -22 -45t-34.5 -71.5t-23.5 -49.5l-154 88q32 54 196.5 359.5t178.5 328.5h26 q54 -87 181 -312.5t141 -248.5q27 -43 50.5 -62.5t51.5 -19.5q57 0 89 61.5t32 167.5q0 148 -72 275.5t-198.5 203.5t-276.5 76q-120 0 -225 -46.5t-179.5 -126t-117.5 -191.5t-43 -238q0 -167 76.5 -296.5t201.5 -197t273 -67.5q171 0 346 103l66 -132q-195 -102 -418 -102 q-205 0 -368 86t-255 241.5t-92 352.5zM717 641l205 4q-9 18 -32.5 62.5t-47 88t-27.5 50.5q-74 -143 -98 -205z" />
<glyph unicode="A" horiz-adv-x="1693" d="M16 117q18 32 200.5 358t359 637.5t237.5 407.5h14q117 -181 459.5 -747.5t390.5 -637.5l-311 -188q-13 23 -71 129.5t-100 182t-52 89.5l-656 -31q-118 -269 -172 -372zM594 555l442 20q-22 43 -115 220.5t-108 208.5q-2 -5 -219 -449z" />
<glyph unicode="B" horiz-adv-x="1419" d="M246 -12q10 113 10 770v227q0 418 -10 461q284 0 493 -21q480 -51 480 -325q0 -33 -10.5 -67.5t-36.5 -77t-80 -86t-131 -78.5v-11q44 -8 87.5 -24t86.5 -43t75 -62t52 -83.5t20 -104.5q0 -72 -36.5 -140t-111.5 -128.5t-181 -106.5t-255.5 -72.5t-324.5 -27.5h-127z M584 201q81 5 158.5 36.5t130.5 88.5t53 125q0 99 -98 155q-89 51 -216 52q-14 0 -28 -1v-456zM584 825q113 3 201.5 75.5t88.5 174.5q0 54 -29 91.5t-77 55.5q-47 18 -92 24q-39 6 -80 5h-12v-426z" />
<glyph unicode="C" horiz-adv-x="1333" d="M88 580q0 104 37 209.5t118 211.5t198 197t289.5 165t379.5 116l66 -308q-328 -50 -518.5 -201t-190.5 -345q0 -157 143 -263t402 -106q110 0 213 18l20 -288q-129 -19 -256 -19q-196 0 -355 41t-258.5 105t-166.5 147.5t-94 163t-27 156.5z" />
<glyph unicode="D" horiz-adv-x="1699" d="M244 -10q5 60 8.5 311t3.5 346v254q0 474 -10 545q450 0 678 -31q123 -16 224 -45.5t170.5 -64.5t123 -78.5t84 -85.5t50 -88.5t26 -83.5t6.5 -74q0 -133 -45 -251.5t-123.5 -208.5t-185.5 -165t-229 -126t-256.5 -86.5t-266 -51.5t-258.5 -16zM600 289q171 21 313.5 94 t229 191.5t86.5 256.5q0 78 -32.5 140t-89 102.5t-137 67t-172.5 37.5q-84 10 -180 10h-18v-899z" />
<glyph unicode="E" horiz-adv-x="1232" d="M250 0q6 109 6 594v274q0 425 -6 578q62 0 394 16t390 21l8 -264q-39 0 -234 -5.5t-208 -5.5v-372q35 0 173 6.5t202 11.5l6 -258q-25 0 -192.5 4t-188.5 4v-350q392 0 467 6l8 -280q-24 0 -403 10t-422 10z" />
<glyph unicode="F" horiz-adv-x="1175" d="M246 0q10 109 10 596v272q0 59 -2.5 302t-5.5 276q174 0 794 31l9 -265l-451 -10v-399q15 0 79.5 3t162 7.5t170.5 7.5l6 -256l-418 6v-182q0 -360 4 -389h-358z" />
<glyph unicode="G" horiz-adv-x="1513" d="M88 571q0 79 29 169.5t104 200t188 207t299 188.5t418 147l74 -309q-107 -18 -213 -55t-201.5 -92.5t-169 -122.5t-116.5 -150t-43 -170q0 -137 112.5 -239.5t288.5 -102.5q113 0 150 6v235q0 82 -4 160h346q-2 -68 -2 -176v-150q0 -44 2 -164t2 -133q-59 -20 -190 -37 q-123 -16 -248 -16h-15q-159 1 -292.5 32.5t-228 86.5t-160.5 131t-98 165t-32 189z" />
<glyph unicode="H" horiz-adv-x="1896" d="M246 1446h368q-3 -24 -6.5 -228.5t-3.5 -250.5v-113l688 39v117q0 49 -2.5 228t-5.5 208h367q-3 -32 -7 -318.5t-4 -345.5v-204q0 -51 3 -302t6 -276h-367q3 46 6.5 230t3.5 225v178l-688 -39v-96q0 -310 8 -498h-362q6 135 6 623v221q0 51 -3.5 310.5t-6.5 291.5z" />
<glyph unicode="I" horiz-adv-x="860" d="M248 1446h364q-8 -148 -8 -606v-222q0 -430 8 -618h-362q6 135 6 623v221q0 36 -3.5 302.5t-4.5 299.5z" />
<glyph unicode="J" horiz-adv-x="899" d="M25 76q51 25 89.5 51.5t80 72t68 101t44 139.5t17.5 187v319q0 41 -4 254.5t-7 245.5h367q-10 -92 -10 -504v-319q0 -131 -23 -242.5t-64 -197.5t-102 -157.5t-131 -124t-157 -96.5z" />
<glyph unicode="K" horiz-adv-x="1556" d="M248 -20q8 236 8 638v218q0 105 -4 364t-4 266h362q-2 -30 -6 -259.5t-4 -350.5v-70h10q66 78 325 368t273 306l244 -229q-37 -39 -234.5 -228.5t-254.5 -248.5q41 -47 277.5 -287.5t252.5 -257.5l-264 -242q-8 10 -137 160t-276.5 324.5t-205.5 250.5h-10v-67 q0 -129 3.5 -378t6.5 -277h-362z" />
<glyph unicode="L" horiz-adv-x="1155" d="M246 0q10 109 10 596v272q0 61 -2.5 307t-5.5 271h368q-3 -38 -7.5 -286.5t-4.5 -432.5v-459q291 0 467 8l2 -296q-11 0 -384.5 10t-442.5 10z" />
<glyph unicode="M" horiz-adv-x="2228" d="M47 55q15 34 254.5 684.5t280.5 745.5h14q35 -61 249 -441.5t249 -439.5q44 67 258 428t243 408h15q63 -139 305.5 -719.5t269.5 -640.5l-317 -139q-25 64 -104 275.5t-147 392.5t-79 204q-9 -13 -204.5 -324t-268.5 -417h-12q-98 159 -238 407t-176 322h-4 q-12 -36 -137 -422.5t-144 -437.5z" />
<glyph unicode="N" horiz-adv-x="1849" d="M186 0q10 132 39 707q31 634 41 780l17 6q129 -103 557.5 -479t494.5 -439q0 71 3.5 448t4.5 433l324 -10q-21 -312 -39 -692q-23 -429 -35 -789l-16 -6q-113 80 -571 482.5t-482 435.5h-4q0 -11 -4 -431q-4 -343 -4 -433v-27z" />
<glyph unicode="O" horiz-adv-x="1789" d="M98 674q0 120 35 236.5t106.5 219.5t170.5 180.5t236 123t294 45.5q222 0 391 -84t265 -250t96 -395q0 -65 -13.5 -135.5t-44.5 -147.5t-76.5 -148t-115 -136t-154.5 -112.5t-200.5 -75.5t-247.5 -28q-169 1 -309.5 55.5t-235 149.5t-146 224t-51.5 278zM481 694 q0 -213 111 -338t287 -125q60 0 118.5 18t114.5 58t99 98t69 144q27 89 27 194q0 222 -112 346q-113 125 -284 125q-184 0 -307 -143.5t-123 -376.5z" />
<glyph unicode="P" horiz-adv-x="1378" d="M250 0q6 264 6 727v225q0 26 -3 253t-3 241q448 0 637 -41q90 -19 162.5 -52t129 -81t87 -116t30.5 -150q0 -103 -47 -200.5t-134 -180t-221.5 -145t-299.5 -91.5v-82q0 -264 4 -307h-348zM594 618q68 13 129 40.5t110.5 69t79 101t29.5 129.5q0 32 -7 62t-29.5 65 t-59 61t-101.5 45.5t-151 22.5v-596z" />
<glyph unicode="Q" horiz-adv-x="1789" d="M98 678q0 124 37 242t110.5 219t174.5 177t236.5 119.5t289.5 43.5q218 0 387.5 -87t264 -247.5t94.5 -370.5q0 -206 -106.5 -384.5t-301.5 -280.5v-13q326 -24 465 -30l-43 -277q-596 135 -705 156q-123 24 -155 24q-19 0 -46 1.5t-89 12t-120 27.5t-130.5 54t-128.5 86 q-118 102 -176 239t-58 289zM481 694q0 -114 33 -204.5t89.5 -147t127.5 -86t150 -29.5q83 0 158.5 34t135.5 97.5t96 165.5t36 228q0 113 -32.5 203t-87 145.5t-123.5 84.5t-146 29q-107 0 -192 -43t-137.5 -116.5t-80 -165.5t-27.5 -195z" />
<glyph unicode="R" horiz-adv-x="1519" d="M248 1446q416 0 618 -27q222 -28 338.5 -113.5t116.5 -222.5q0 -225 -272 -411q65 -80 446 -504l-289 -221q-18 28 -253 358.5t-265 374.5q43 24 83 53t84.5 71.5t71.5 97.5t27 112q0 40 -16 73.5t-53 65t-110.5 49.5t-176.5 19v-594q0 -81 3.5 -343.5t6.5 -283.5h-354 q2 14 3.5 90t1.5 182v201.5t-0.5 180.5t-0.5 87v168q0 85 -3 298.5t-7 238.5z" />
<glyph unicode="S" horiz-adv-x="1103" d="M137 975q0 84 55 167t150 151.5t231 119.5t291 70l49 -269q-105 -4 -194 -26t-148 -65.5t-59 -100.5q0 -24 13 -45t45.5 -44t57.5 -37.5t78 -42.5q11 -6 17 -9q123 -67 171 -106q111 -94 112 -220q0 -66 -27 -132.5t-87 -132.5t-146 -122t-213.5 -100.5t-280.5 -67.5 l-55 273q77 5 151.5 21t137.5 41t102 63t39 81q0 48 -40 85t-163 106q-65 37 -108.5 67t-88.5 72.5t-67.5 93t-22.5 109.5z" />
<glyph unicode="T" horiz-adv-x="1343" d="M-10 1161v285q58 -8 300.5 -14.5t299.5 -6.5h178q64 0 293 6.5t293 14.5v-285q-27 4 -230 10.5t-278 6.5v-476q0 -202 5 -433.5t9 -268.5h-371q9 80 9 735v443q-110 0 -283.5 -6t-224.5 -11z" />
<glyph unicode="U" horiz-adv-x="1724" d="M180 1022v111q0 53 1 169t1 134h365q-12 -79 -12 -349v-139q0 -244 19 -367.5t75 -203.5q85 -125 245 -125q162 0 250 135q52 79 64 204.5t12 448.5v76q0 62 -2 130.5t-4.5 132.5t-3.5 87h360q0 -8 1 -133t1 -221v-94q0 -327 -34.5 -511t-143.5 -314q-183 -226 -526 -226 q-366 0 -535 252q-52 79 -79 166.5t-40.5 237.5t-13.5 399z" />
<glyph unicode="V" horiz-adv-x="1593" d="M14 1303l330 182q17 -41 117.5 -254t217 -459.5t126.5 -267.5q20 41 137.5 277.5t225.5 455.5t120 248l324 -172q-38 -57 -400 -676.5t-421 -714.5h-15q-81 125 -410 735.5t-352 645.5z" />
<glyph unicode="W" horiz-adv-x="2181" d="M39 1362l336 125q33 -113 103 -330t132 -406t70 -214q310 510 426 706h14q244 -389 434 -672h7q30 74 171 475.5t148 419.5l322 -135q-3 -6 -148 -334t-290 -649.5t-177 -380.5h-14q-68 99 -237.5 360.5t-231.5 360.5q-51 -78 -245 -391t-243 -387h-16q-51 105 -260 652 t-301 800z" />
<glyph unicode="X" horiz-adv-x="1601" d="M80 176q36 38 249.5 274.5t256.5 286.5q-160 173 -451 510l264 242q293 -381 416 -528q310 366 442 530l248 -234q-97 -97 -277.5 -282t-213.5 -225q55 -59 261.5 -288.5t244.5 -273.5l-260 -249q-56 71 -245 303t-231 282q-53 -62 -469 -590z" />
<glyph unicode="Y" horiz-adv-x="1523" d="M51 1165l137 314q99 -44 194 -104t155 -122q166 -178 225 -376h12q68 192 236 364q73 75 175.5 141t200.5 97l113 -314q-85 -21 -177.5 -73t-166.5 -125q-104 -101 -168.5 -244.5t-64.5 -312.5v-158q0 -27 3.5 -125.5t6.5 -126.5h-367q10 235 10 291v117q0 188 -74 344 t-190 258q-122 108 -260 155z" />
<glyph unicode="Z" horiz-adv-x="1454" d="M76 14q62 85 401.5 602.5t378.5 583.5q-39 0 -351.5 9.5t-340.5 9.5l8 266q48 -5 325.5 -17t564 -22t304.5 -12l6 -13q-43 -64 -389 -593t-381 -584q132 0 410.5 4.5t316.5 9.5l-8 -278q-20 0 -602.5 10t-636.5 10z" />
<glyph unicode="[" horiz-adv-x="753" d="M188 -160q9 306 9 819v181q0 460 -9 737l539 45l10 -192l-278 -11q-8 -159 -8 -456v-275q0 -419 8 -676l268 4l10 -192z" />
<glyph unicode="\" horiz-adv-x="862" d="M-84 1335l174 103q27 -47 84 -139t164 -262.5t164 -262.5q419 -672 438 -700l-166 -115q-304 518 -436 731q-127 208 -255.5 402t-166.5 243z" />
<glyph unicode="]" horiz-adv-x="753" d="M16 16l279 11q8 159 8 456v262q0 432 -8 689l-268 -4l-11 192l549 -16q-8 -272 -8 -832v-168q0 -491 8 -737l-538 -45z" />
<glyph unicode="^" horiz-adv-x="1220" d="M92 369l424 962h191l423 -962h-217l-303 739h-2l-301 -739h-215z" />
<glyph unicode="_" horiz-adv-x="1024" d="M0 -154h1024v-102h-1024v102z" />
<glyph unicode="`" horiz-adv-x="1804" d="M612 1729l113 182l313 -242l-71 -113z" />
<glyph unicode="a" horiz-adv-x="1525" d="M12 98q612 1045 715 1194h25q112 -161 417 -640.5t342 -532.5l-286 -168q-19 33 -65.5 112t-85 144t-42.5 72l-588 -25q-4 -9 -35 -71.5t-65 -131.5t-49 -102zM543 471l385 16q-86 168 -195 361q-19 -34 -190 -377z" />
<glyph unicode="b" horiz-adv-x="1296" d="M213 -10q8 96 8 655v193q0 56 -2.5 212.5t-5.5 180.5q373 0 481 -10q441 -43 441 -285q0 -30 -12 -63t-39 -70t-79.5 -72.5t-123.5 -60.5v-8q76 -4 145 -35t117.5 -92.5t48.5 -141.5q0 -85 -52 -157.5t-153 -127.5t-264 -86.5t-371 -31.5h-139zM537 176q122 5 214.5 60.5 t92.5 146.5q0 89 -84 133q-74 38 -190 38q-16 0 -33 -1v-377zM537 711q101 0 180.5 55.5t79.5 148.5q0 46 -26.5 77.5t-70.5 44.5q-42 13 -82 17q-27 3 -56 4q-12 0 -25 -1v-346z" />
<glyph unicode="c" horiz-adv-x="1206" d="M86 492q0 90 34 181t108 182t180.5 168t262 139t341.5 95l59 -270q-288 -42 -451 -165.5t-163 -291.5q0 -129 119 -210.5t354 -81.5q96 0 186 12l19 -264q-99 -15 -226 -15q-150 0 -276 23.5t-214 65t-154 93t-104 111t-56.5 116.5t-18.5 112z" />
<glyph unicode="d" horiz-adv-x="1509" d="M213 -8q4 51 7 269t3 290v215q0 398 -8 463q408 0 604 -21q111 -12 202 -36.5t152.5 -55t108 -69.5t72 -76t41.5 -79t21 -73.5t5 -64.5q0 -117 -37.5 -219t-103.5 -179.5t-158 -140t-198 -104.5t-226 -70q-120 -27 -241 -39q-103 -10 -208 -10h-36zM555 246 q225 20 365.5 145.5t140.5 310.5q0 70 -25.5 123t-69.5 86.5t-110 54.5q-65 20 -138 28q-64 7 -142 7h-21v-755z" />
<glyph unicode="e" horiz-adv-x="1122" d="M219 0q4 92 4 506v231q0 13 -2 241t-2 251q62 0 366 13t373 18l9 -238q-42 0 -223.5 -5t-192.5 -5v-295q35 0 163 5.5t191 10.5l4 -233q-28 0 -183.5 3t-174.5 3v-279q376 0 438 4l6 -249q-34 0 -384.5 9t-391.5 9z" />
<glyph unicode="f" horiz-adv-x="1083" d="M213 0q10 92 10 506v231q0 363 -6 492q80 0 752 24l8 -237l-422 -8v-320q30 0 387 17l6 -232l-393 4v-147q0 -305 4 -330h-346z" />
<glyph unicode="g" horiz-adv-x="1374" d="M84 485q0 69 27 147t96 172t172.5 177t274 159.5t382.5 121.5l66 -285q-122 -19 -236.5 -61t-208 -102t-150 -143t-56.5 -175q0 -122 98.5 -200.5t255.5 -78.5q74 0 110 8v187q0 25 -2 74.5t-2 68.5h326q-2 -66 -2 -158v-127q0 -39 2 -140t2 -112q-59 -17 -177 -32 t-239 -15q-183 0 -326.5 40.5t-232 111.5t-134.5 163t-46 199z" />
<glyph unicode="h" horiz-adv-x="1687" d="M219 1229h352q-3 -20 -6.5 -193.5t-3.5 -212.5v-88l565 33v92q0 41 -2.5 192.5t-5.5 176.5h352q-1 -28 -5.5 -278t-4.5 -285v-174q0 -49 2.5 -260t5.5 -232h-350q8 236 8 385v143l-565 -32v-74q0 -258 8 -422h-346q4 152 4 528v189q0 54 -2.5 270t-5.5 242z" />
<glyph unicode="i" horiz-adv-x="780" d="M215 1229h350q-8 -124 -8 -514v-189q0 -362 8 -526h-348q4 152 4 528v189q0 38 -2.5 261.5t-3.5 250.5z" />
<glyph unicode="j" horiz-adv-x="815" d="M10 70q47 22 82 43.5t73.5 59t62.5 84t39.5 117t15.5 158.5v273q0 34 -4 215t-7 209h357q-11 -91 -11 -428v-273q0 -138 -32.5 -251.5t-93.5 -198t-139 -146t-179 -108.5z" />
<glyph unicode="k" horiz-adv-x="1417" d="M219 -18q8 204 8 544v185q0 90 -4 309.5t-4 226.5h342q-2 -24 -5 -216.5t-3 -299.5v-59h8q508 552 535 579l223 -231q-72 -61 -214 -187.5t-208 -191.5q37 -40 241.5 -232t219.5 -206l-244 -242q-6 7 -244.5 278t-308.5 355h-8v-57q0 -485 8 -555h-342z" />
<glyph unicode="l" horiz-adv-x="1056" d="M215 0q8 92 8 506v231q0 37 -2.5 254t-3.5 240h354q-3 -33 -7.5 -245t-4.5 -368v-374q264 0 434 8l2 -270q-21 0 -369 9t-411 9z" />
<glyph unicode="m" horiz-adv-x="1986" d="M31 51q7 16 223 570.5t256 642.5h25q51 -83 235.5 -395t204.5 -345q18 28 209.5 333t234.5 370h23q44 -93 157 -348t225 -510t130 -295l-305 -123q-43 110 -152.5 399t-122.5 328q-59 -90 -202 -305t-218 -320h-22q-92 146 -213 343.5t-162 269.5h-4q-13 -36 -110 -355 t-113 -360z" />
<glyph unicode="n" horiz-adv-x="1613" d="M158 0q7 72 37.5 629.5t35.5 634.5l23 6q120 -95 469 -387t426 -359h4q0 29 -1 212q-2 183 -2 308v77q0 71 1 116l311 -8q-20 -251 -47 -893q-3 -78 -10 -206t-8 -161l-19 -8q-61 51 -284 233.5t-412 337t-209 173.5q1 -34 1 -362t1 -355z" />
<glyph unicode="o" horiz-adv-x="1630" d="M92 559q0 108 31 209.5t95.5 190t154.5 155t216.5 105t274.5 38.5q309 0 491.5 -161t182.5 -443q0 -86 -23 -174.5t-80 -181t-142 -164t-221 -117t-304 -45.5h-2q-132 0 -244 33t-190 90t-133 132.5t-81 159.5t-26 173zM463 586q0 -179 90.5 -284t234.5 -105 q165 0 272 116.5t107 327.5q0 188 -90.5 289.5t-236.5 101.5q-115 0 -202 -61t-131 -161.5t-44 -223.5z" />
<glyph unicode="p" horiz-adv-x="1280" d="M217 0q6 228 6 618v191q0 22 -2 215t-2 205q438 0 610 -33q169 -31 270 -117.5t101 -226.5q0 -92 -44.5 -178t-125.5 -156t-204 -121t-273 -73v-66q0 -221 2 -258h-338zM553 532q124 17 209.5 89.5t85.5 195.5q0 193 -295 205v-490z" />
<glyph unicode="q" horiz-adv-x="1624" d="M92 569q0 140 54.5 265.5t152 219t242.5 148.5t317 55q311 0 494.5 -159t183.5 -430q0 -187 -100.5 -344t-266.5 -226v-10q135 -8 418 -20l-37 -256q-240 49 -645 137q-114 24 -151 24q-41 0 -87 5.5t-113 20.5t-138.5 51t-130.5 89q-193 171 -193 430zM463 584 q0 -188 93.5 -288.5t231.5 -100.5q78 0 144.5 27.5t119 81.5t82 143t29.5 204q0 82 -18 147.5t-48.5 108.5t-72 71.5t-86.5 41t-94 12.5q-78 0 -143 -28t-108 -73t-73 -104t-43.5 -120.5t-13.5 -122.5z" />
<glyph unicode="r" horiz-adv-x="1370" d="M217 1229h82h90.5t83 -0.5t90 -1.5t79.5 -3t84 -5t73 -7q199 -23 306 -98t107 -194q0 -209 -247 -353q23 -27 108.5 -115t180 -182.5t108.5 -109.5l-277 -209q-3 5 -215.5 292t-242.5 332q225 113 225 283q0 164 -299 166v-492q0 -78 2.5 -296t5.5 -236h-340q4 27 4 545 v227q0 63 -2.5 248.5t-5.5 208.5z" />
<glyph unicode="s" horiz-adv-x="1019" d="M102 829q0 103 89.5 196.5t251 158.5t358.5 82l45 -252q-387 -12 -387 -144q0 -18 8.5 -33t32.5 -30.5t39 -24t56.5 -27t57.5 -26.5q32 -15 41 -19.5l40 -20t43 -23.5t38 -25.5t37.5 -30.5t29.5 -33.5t25.5 -39.5t14 -44t6.5 -51q0 -77 -44.5 -151.5t-131 -140t-229 -114 t-322.5 -69.5l-47 254q80 4 148 14t130.5 27.5t98.5 47.5t36 69q0 42 -37 70.5t-153 82.5q-59 27 -102 53t-85.5 62t-65 82t-22.5 100z" />
<glyph unicode="t" horiz-adv-x="1202" d="M-8 973v256q46 -6 263 -11.5t271 -5.5h162q61 0 265 5.5t253 11.5v-256q-16 3 -196.5 7.5t-243.5 4.5v-391q0 -174 4.5 -369.5t7.5 -224.5h-354q8 60 8 621v364q-93 0 -248.5 -4.5t-191.5 -7.5z" />
<glyph unicode="u" horiz-adv-x="1538" d="M152 868v95q0 45 1 143.5t1 112.5h354q-10 -75 -10 -295v-117q0 -224 15 -327t65 -169q40 -54 87 -78t113 -24q130 0 211 113q46 65 57 170.5t11 392.5v63q0 54 -2 111.5t-4.5 112.5t-3.5 73h344q0 -7 1 -112.5t1 -186.5v-82q0 -274 -32 -430.5t-130 -269.5 q-169 -193 -477 -193q-327 0 -478 215q-70 99 -97 237.5t-27 444.5z" />
<glyph unicode="v" horiz-adv-x="1437" d="M4 1106l324 164q42 -91 204.5 -434t194.5 -406q11 22 117 232t199 394.5t104 209.5l309 -150q-32 -48 -358 -574.5t-381 -611.5h-25q-58 85 -216.5 357.5t-307 533t-164.5 285.5z" />
<glyph unicode="w" horiz-adv-x="1964" d="M33 1139l319 116q26 -79 87 -268.5t110 -342t61 -185.5h4q54 83 377 604h19q64 -97 141.5 -211.5t150 -221.5t95.5 -141h4q18 44 135 374t135 376l309 -119q-4 -8 -132.5 -282.5t-257.5 -545.5t-158 -321h-23q-107 137 -418 596q-29 -41 -205.5 -308.5t-228.5 -336.5h-22 q-45 86 -223.5 524.5t-278.5 692.5z" />
<glyph unicode="x" horiz-adv-x="1433" d="M55 156q31 30 221.5 228t231.5 243q-316 331 -402 424l252 223q22 -27 102 -125t154.5 -189t112.5 -133q55 61 391 445l236 -215q-16 -16 -212.5 -202.5t-223.5 -215.5q28 -29 128.5 -133.5t205 -212.5t120.5 -125l-254 -227q-29 33 -210.5 246.5t-209.5 246.5 q-9 -11 -107 -130.5t-192.5 -233t-111.5 -131.5z" />
<glyph unicode="y" horiz-adv-x="1288" d="M10 963l115 294q90 -32 177.5 -82t141.5 -104q147 -151 205 -330h8q69 190 211 320q69 64 163 119t186 82l90 -297q-72 -16 -153.5 -56.5t-147.5 -99.5q-91 -81 -146 -203.5t-55 -263.5v-127q0 -145 8 -215h-352q10 205 10 248v92q0 160 -64.5 289.5t-170.5 214.5 q-90 71 -226 119z" />
<glyph unicode="z" horiz-adv-x="1302" d="M57 20q47 59 356.5 508t325.5 469q-35 0 -305 3.5t-291 3.5l9 258q70 -7 471 -25q398 -18 548 -18h54l8 -17q-42 -63 -348.5 -509.5t-321.5 -465.5q94 0 347 5.5t286 9.5l-8 -262q-16 0 -545.5 10t-576.5 10z" />
<glyph unicode="{" horiz-adv-x="753" d="M43 637v182q43 0 71.5 4t56.5 17t44 37t26.5 65t12.5 100q7 266 87.5 393t266.5 177l84 -191q-94 -29 -132.5 -117t-41.5 -268q0 -92 -49 -176.5t-129 -120.5q89 -42 133.5 -123.5t44.5 -214.5q0 -180 41.5 -271t132.5 -116l-84 -190q-187 35 -267 166t-89 411 q-3 78 -17 126.5t-43 72t-62 30.5t-87 7z" />
<glyph unicode="|" horiz-adv-x="667" d="M227 -512v2048h213v-2048h-213z" />
<glyph unicode="}" horiz-adv-x="753" d="M61 16q95 27 132 114.5t40 270.5q2 98 52 183.5t133 126.5q-182 87 -182 323q0 180 -42 272t-133 115l84 191q186 -33 267 -164.5t90 -403.5q2 -63 13 -106t26.5 -68.5t43 -39t55.5 -17.5t71 -4v-180q-43 0 -71.5 -4t-56.5 -17t-44 -37t-26.5 -65t-12.5 -100 q-7 -274 -87 -403t-268 -179z" />
<glyph unicode="~" horiz-adv-x="1220" d="M57 383q-6 401 287 401q72 0 131 -19.5t170 -74.5q6 -3 31.5 -15.5t33 -16t29 -13.5t30.5 -13.5t27 -10t29 -9t25.5 -4.5t26.5 -2q77 0 88 172h196q14 -403 -284 -403q-47 0 -102.5 15.5t-93 32t-112.5 52.5q-17 8 -55.5 28t-57 28.5t-45.5 17t-49 8.5q-45 0 -72 -39 t-36 -135h-197z" />
<glyph unicode="&#xa1;" horiz-adv-x="651" d="M125 2q7 66 57 441.5t64 519.5l209 16q7 -149 28 -526.5t25 -466.5zM209 1182v264h287v-264h-287z" />
<glyph unicode="&#xa2;" d="M336 688q0 158 98 290.5t275 225.5l-4 350h215l-7 -276q88 34 265 59l22 -270q-253 -21 -383.5 -118.5t-130.5 -231.5q0 -56 30 -100t81 -69.5t112 -38.5t129 -13q70 0 195 16l14 -250q-77 -14 -172 -14q-125 0 -162 2l7 -283h-215l4 312q-84 24 -150.5 62t-107 80.5 t-67.5 91.5t-37.5 91.5t-10.5 83.5z" />
<glyph unicode="&#xa3;" d="M285 725q76 0 213 10q14 99 20 129q57 274 248 427t487 188l29 -265q-38 -3 -59.5 -5t-57.5 -8t-57.5 -14t-53 -22.5t-52 -33.5t-45.5 -47.5t-43 -64t-35.5 -83t-30.5 -105.5q-3 -14 -8.5 -43.5t-8.5 -42.5q75 5 206.5 16.5t140.5 12.5l-9 -184q-113 -3 -364 -15 q-46 -224 -105 -354q179 0 598 17v-248q-20 0 -422 5t-520 5q10 31 19 64t16 59t15 62t13 56t12.5 59.5t10 53.5t10 56.5l9 51t8.5 54t8 49.5q-29 -2 -190 -14z" />
<glyph unicode="&#xa4;" horiz-adv-x="1366" d="M94 1098l144 147l174 -180q107 76 268 76h2q161 0 274 -74l174 180l146 -149l-189 -156q87 -97 87 -242q0 -167 -95 -258l178 -161l-141 -142l-160 189q-51 -40 -126 -62t-150 -22q-73 0 -149.5 22t-120.5 60l-162 -187l-142 142l179 161q-97 92 -97 254q0 145 91 246z M403 696q0 -57 19.5 -102t48.5 -71.5t67.5 -43.5t73 -23.5t68.5 -6.5q35 0 69.5 6t73 23.5t68 44.5t48.5 73.5t19 105.5q0 102 -81 168t-197 66h-2q-111 0 -193 -68t-82 -172z" />
<glyph unicode="&#xa5;" d="M152 1276l272 180q240 -424 373 -641h4q236 373 385 641l266 -166q-10 -14 -207 -290.5t-293 -401.5q210 0 316 4l4 -172q-98 4 -336 4v-164q0 -26 4.5 -133t7.5 -137h-325q10 255 10 311v121q-220 2 -330 -2l-4 172q106 -5 317 -2q-78 111 -251 365.5t-213 310.5z" />
<glyph unicode="&#xa6;" horiz-adv-x="667" d="M227 356h213v-716h-213v716zM227 664v716h213v-716h-213z" />
<glyph unicode="&#xa7;" horiz-adv-x="1099" d="M92 637q0 137 182 227q-77 61 -77 146q0 80 49 149t134.5 118t195.5 81.5t237 46.5l41 -209q-187 -14 -279 -58.5t-92 -103.5q0 -40 42.5 -67.5t152.5 -67.5q66 -25 105.5 -41.5t88 -43.5t74.5 -54t44 -65.5t18 -84.5q0 -138 -170 -227q59 -54 59 -129 q0 -147 -178 -254.5t-500 -132.5l-41 213q218 0 326 40.5t108 98.5q0 11 -3 20.5t-11 19t-16.5 16.5t-24 16t-28.5 15.5t-35.5 16.5t-39.5 17t-46 18.5t-50 20.5q-59 25 -100.5 47t-82.5 53.5t-62 71t-21 86.5zM338 686q0 -18 9 -34t20.5 -27t33.5 -23.5t36 -18.5t40 -17 t35 -15q16 -7 57.5 -25t75 -33t53.5 -26q28 9 49 34.5t21 53.5q0 22 -8.5 40.5t-19 30t-33 25t-37 20t-45.5 19.5t-45 19q-109 45 -166 75q-76 -33 -76 -98z" />
<glyph unicode="&#xa8;" horiz-adv-x="1804" d="M514 1735l156 155l157 -155l-157 -156zM977 1735l156 155l157 -155l-157 -156z" />
<glyph unicode="&#xa9;" horiz-adv-x="1744" d="M98 713q0 161 59 303t162.5 244t249.5 160.5t314 58.5t311 -55.5t242 -153.5t155 -236.5t56 -300.5q0 -161 -59 -303t-162.5 -244t-249.5 -160.5t-314 -58.5q-164 0 -306.5 57t-242.5 156t-157.5 237t-57.5 296zM272 725q0 -130 46.5 -246.5t126 -199t189 -131 t230.5 -48.5q268 0 438.5 175.5t170.5 449.5q0 130 -46 246t-124.5 198t-187.5 129.5t-230 47.5q-269 0 -441 -174t-172 -447zM535 678q0 66 30 133t89 129.5t158 113t224 76.5l31 -176q-78 -10 -149.5 -44.5t-118.5 -89t-47 -113.5q0 -70 61.5 -121t177.5 -51q62 0 109 8 l10 -166q-41 -8 -115 -8q-88 0 -161 15.5t-119.5 39t-81.5 55.5t-53 61t-29 60t-13.5 48.5t-2.5 29.5z" />
<glyph unicode="&#xaa;" horiz-adv-x="1036" d="M53 809q16 25 208.5 335t215.5 339l62 10q85 -135 240 -372t200 -300l-219 -125q-7 17 -27.5 55.5t-40.5 74.5t-22 40l-332 -16q-19 -36 -76 -154zM397 999l215 13q-83 145 -112 188q-51 -89 -103 -201z" />
<glyph unicode="&#xab;" horiz-adv-x="1081" d="M109 692q22 28 290 359l138 -117q-142 -142 -213 -234q151 -167 227 -235l-129 -131q-20 25 -83.5 97.5t-137 155.5t-92.5 105zM483 698q29 37 170 200.5t178 213.5l138 -137q-9 -9 -44 -43.5t-60 -59.5t-57 -58.5t-55.5 -60t-35.5 -44.5q125 -139 250 -260l-136 -144 q-30 37 -181.5 206t-166.5 187z" />
<glyph unicode="&#xac;" horiz-adv-x="1220" d="M82 664v192h1057v-629h-207v437h-850z" />
<glyph unicode="&#xad;" horiz-adv-x="800" d="M68 844q92 -2 346.5 -3.5t312.5 -0.5l6 -224q-53 4 -315 -6t-340 -16z" />
<glyph unicode="&#xae;" horiz-adv-x="1744" d="M98 713q0 161 59 303t162.5 244t249.5 160.5t314 58.5t311 -55.5t242 -153.5t155 -236.5t56 -300.5q0 -161 -59 -303t-162.5 -244t-249.5 -160.5t-314 -58.5q-164 0 -306.5 57t-242.5 156t-157.5 237t-57.5 296zM272 725q0 -130 46.5 -246.5t126 -199t189 -131 t230.5 -48.5q268 0 438.5 175.5t170.5 449.5q0 130 -46 246t-124.5 198t-187.5 129.5t-230 47.5q-269 0 -441 -174t-172 -447zM582 1106q285 0 389 -19q89 -14 142.5 -57.5t53.5 -107.5q0 -115 -135 -207q29 -35 108.5 -123.5t104.5 -110.5l-151 -112q-3 4 -122.5 163.5 t-137.5 184.5q52 26 93.5 68t41.5 85t-44.5 74.5t-158.5 28.5v-273q0 -37 2.5 -169.5t3.5 -143.5l-188 2q2 13 2 371v84q0 222 -4 262z" />
<glyph unicode="&#xaf;" horiz-adv-x="1804" d="M612 1589l17 152l561 6l-8 -168z" />
<glyph unicode="&#xb0;" horiz-adv-x="827" d="M57 1075q-2 138 99 235t254 97h2q152 0 251 -97.5t99 -232.5q0 -138 -101.5 -235t-250.5 -97q-153 0 -253 97.5t-100 232.5zM244 1075q0 -73 45.5 -121.5t118.5 -48.5q74 0 120.5 49.5t46.5 124.5q0 66 -43 117t-122 51h-2q-78 0 -121 -51.5t-43 -120.5z" />
<glyph unicode="&#xb1;" horiz-adv-x="1220" d="M82 0v193h1059v-193h-1059zM82 643v193h426v364h207v-364h426v-193h-426v-373h-207v373h-426z" />
<glyph unicode="&#xb2;" horiz-adv-x="823" d="M47 602q77 51 142 103.5t126 115t96 130.5t35 132q0 98 -90 150.5t-219 52.5l25 184q276 -22 416.5 -118.5t140.5 -231.5q0 -40 -12.5 -80.5t-29.5 -72t-46.5 -66.5t-51.5 -56.5t-57 -49.5t-49.5 -38.5t-42.5 -29.5v-6l324 24v-194q-43 5 -545 10h-141z" />
<glyph unicode="&#xb3;" horiz-adv-x="792" d="M117 709q58 -3 113.5 2t105 19t80 42.5t30.5 67.5q0 42 -36.5 72t-88 44t-118.5 21l-2 72q78 2 151.5 46t73.5 103q0 44 -46 72t-103.5 36t-116.5 5l16 164q99 -2 189.5 -17t165 -42.5t119 -73t44.5 -101.5q0 -63 -57.5 -121.5t-124.5 -85.5v-8q217 -43 217 -184 q0 -71 -58.5 -131t-149.5 -97.5t-196.5 -58t-203.5 -18.5z" />
<glyph unicode="&#xb4;" horiz-adv-x="1804" d="M768 1669l322 242l108 -182l-360 -175z" />
<glyph unicode="&#xb5;" horiz-adv-x="1220" d="M129 -393v1421h266v-625q0 -105 54.5 -168t154.5 -63q108 0 175 79.5t67 184.5v592h246v-1028h-246v147h-4q-43 -78 -110.5 -125t-147.5 -47q-126 0 -195 99l-4 -4q10 -152 10 -168v-295h-266z" />
<glyph unicode="&#xb6;" horiz-adv-x="1300" d="M66 915q0 104 60 189t161.5 141.5t237 93t286 49.5t307.5 5q-3 -24 -5.5 -299t-2.5 -344v-226q0 -524 4 -618h-229q4 94 4 620v226l-4 444l-160 -10q-6 -418 -6 -434v-226q0 -526 4 -620h-229q4 94 4 549v65q-84 14 -159.5 46t-137.5 80.5t-98.5 118t-36.5 150.5z" />
<glyph unicode="&#xb7;" horiz-adv-x="600" d="M154 555v281h295v-281h-295z" />
<glyph unicode="&#xb8;" d="M580 -395q83 3 142 32.5t62 81.5q0 39 -40.5 70.5t-102.5 50.5l94 172h170l-78 -133q62 -16 107 -61.5t45 -104.5q0 -89 -106 -151t-273 -76z" />
<glyph unicode="&#xb9;" horiz-adv-x="753" d="M66 1198q21 13 193 134.5t216 154.5l84 -29q-12 -246 -12 -377v-190q0 -291 4 -330h-256q0 10 1.5 66t3 139.5t1.5 159.5v256q-31 -20 -90 -62l-59 -43z" />
<glyph unicode="&#xba;" horiz-adv-x="1009" d="M66 1069q0 76 30.5 148.5t86.5 131t145 94.5t196 36q197 0 308.5 -95.5t111.5 -259.5q0 -72 -28 -142.5t-82.5 -131t-147 -97.5t-209.5 -36q-194 0 -302.5 101.5t-108.5 250.5zM317 1090q0 -93 50 -151t127 -58q90 0 144 61t54 168q0 101 -52 153t-132 52 q-82 0 -136.5 -64t-54.5 -161z" />
<glyph unicode="&#xbb;" horiz-adv-x="1081" d="M113 440q16 18 76.5 78.5t108.5 112t67 78.5q-46 53 -124 134t-126 124l135 145q27 -34 174.5 -198t173.5 -195q-29 -37 -170 -200.5t-178 -213.5zM532 952l127 131q20 -25 84 -98t137 -155t93 -105q-41 -52 -161.5 -199.5t-129.5 -158.5l-131 125q33 32 103 106.5 t102 116.5q-39 48 -105.5 118.5t-118.5 118.5z" />
<glyph unicode="&#xbc;" horiz-adv-x="1800" d="M66 1198q21 13 193 134.5t216 154.5l84 -29q-12 -246 -12 -377v-190q0 -291 4 -330h-256q0 10 1.5 66t3 139.5t1.5 159.5v256q-31 -20 -90 -62l-59 -43zM358 68q60 94 449 733q63 104 168 273.5t164.5 267.5t85.5 147l174 -103q-177 -250 -430 -671q-239 -398 -441 -758z M887 246l545 682l124 -33v-567l142 6l-12 -180l-132 4v-23q0 -14 1 -34.5t2 -50.5t2 -50h-242q0 11 3 64t3 83v11h-397zM1167 328h164v235q-21 -30 -81 -117.5t-83 -117.5z" />
<glyph unicode="&#xbd;" horiz-adv-x="1978" d="M55 1198q21 13 193.5 134.5t216.5 154.5l84 -29q-12 -246 -12 -377v-190q0 -291 4 -330h-256q0 10 1.5 66t3 139.5t1.5 159.5v256q-23 -15 -52 -35t-58.5 -41.5t-39.5 -28.5zM408 68q42 65 448 733q63 104 168 273.5t164.5 267.5t85.5 147l174 -103q-177 -250 -430 -671 q-225 -374 -440 -758zM1130 41q400 265 400 481q0 98 -90 150.5t-219 52.5l24 184q276 -22 416.5 -118.5t140.5 -231.5q0 -40 -12.5 -80.5t-29.5 -72t-46.5 -66.5t-51.5 -56.5t-57 -49.5t-49.5 -38.5t-42.5 -29.5v-6l324 24v-194q-27 3 -212.5 6.5t-332.5 3.5h-141z" />
<glyph unicode="&#xbe;" horiz-adv-x="1849" d="M117 709q58 -3 113.5 2t105 19t80 42.5t30.5 67.5q0 42 -36.5 72t-88 44t-118.5 21l-2 72q78 2 151.5 46t73.5 103q0 44 -46 72t-103.5 36t-116.5 5l16 164q99 -2 189.5 -17t165 -42.5t119 -73t44.5 -101.5q0 -63 -57.5 -121.5t-124.5 -85.5v-8q217 -43 217 -184 q0 -71 -58.5 -131t-149.5 -97.5t-196.5 -58t-203.5 -18.5zM418 68q42 65 448 733q63 104 168 273.5t164.5 267.5t85.5 147l174 -103q-177 -250 -430 -671q-225 -374 -440 -758zM936 246l545 682l125 -33v-567l141 6l-12 -180l-131 4v-23q0 -25 4 -135h-242q0 11 3 64t3 83 v11h-397zM1237 328h164v235q-21 -30 -81 -117.5t-83 -117.5z" />
<glyph unicode="&#xbf;" horiz-adv-x="1001" d="M109 426q0 89 38.5 171t99 143t141.5 113t160 86t159 56l69 -198q-36 -10 -73 -26.5t-80 -44.5t-75.5 -61.5t-54.5 -81t-22 -100.5q0 -68 43 -121.5t113.5 -85t146 -49.5t154.5 -24l-47 -248q-227 30 -398.5 92.5t-272.5 160t-101 218.5zM481 1182v264h287v-264h-287z " />
<glyph unicode="&#xc0;" horiz-adv-x="1693" d="M16 117q18 32 200.5 358t359 637.5t237.5 407.5h14q117 -181 459.5 -747.5t390.5 -637.5l-311 -188q-13 23 -71 129.5t-100 182t-52 89.5l-656 -31q-118 -269 -172 -372zM557 1753l113 182l313 -241l-72 -113zM594 555l442 20q-22 43 -115 220.5t-108 208.5 q-2 -5 -219 -449z" />
<glyph unicode="&#xc1;" horiz-adv-x="1693" d="M16 117q18 32 200.5 358t359 637.5t237.5 407.5h14q117 -181 459.5 -747.5t390.5 -637.5l-311 -188q-13 23 -71 129.5t-100 182t-52 89.5l-656 -31q-118 -269 -172 -372zM594 555l442 20q-22 43 -115 220.5t-108 208.5q-2 -5 -219 -449zM631 1694l321 241l109 -182 l-361 -174z" />
<glyph unicode="&#xc2;" horiz-adv-x="1693" d="M16 117q18 32 200.5 358t359 637.5t237.5 407.5h14q117 -181 459.5 -747.5t390.5 -637.5l-311 -188q-13 23 -71 129.5t-100 182t-52 89.5l-656 -31q-118 -269 -172 -372zM496 1694l319 204l301 -204l-98 -135l-211 163l-223 -163zM594 555l442 20q-22 43 -115 220.5 t-108 208.5q-2 -5 -219 -449z" />
<glyph unicode="&#xc3;" horiz-adv-x="1693" d="M16 117q18 32 200.5 358t359 637.5t237.5 407.5h14q117 -181 459.5 -747.5t390.5 -637.5l-311 -188q-13 23 -71 129.5t-100 182t-52 89.5l-656 -31q-118 -269 -172 -372zM473 1649q33 86 89 141t116 55q17 0 34 -2.5t29.5 -5t30 -9t25 -9.5t26 -11t23.5 -10q4 -1 17 -6.5 t17.5 -7.5t16 -5.5t18.5 -5t18 -3t21 -1.5q60 3 111 91l117 -64q-37 -92 -90.5 -141t-108.5 -49q-24 -1 -49 4t-38.5 9.5t-40.5 15.5t-34 14q-76 32 -123 32q-60 0 -108 -90zM594 555l442 20q-22 43 -115 220.5t-108 208.5q-2 -5 -219 -449z" />
<glyph unicode="&#xc4;" horiz-adv-x="1693" d="M16 117q18 32 200.5 358t359 637.5t237.5 407.5h14q117 -181 459.5 -747.5t390.5 -637.5l-311 -188q-13 23 -71 129.5t-100 182t-52 89.5l-656 -31q-118 -269 -172 -372zM438 1735l156 155l158 -155l-158 -156zM594 555l442 20q-22 43 -115 220.5t-108 208.5 q-2 -5 -219 -449zM901 1735l156 155l157 -155l-157 -156z" />
<glyph unicode="&#xc5;" horiz-adv-x="1693" d="M16 117q16 28 180 321.5t330 587.5t240 414q-85 11 -135.5 56.5t-50.5 117.5q3 91 71.5 144.5t177.5 53.5q121 0 181.5 -47.5t60.5 -124.5q0 -81 -53.5 -132.5t-143.5 -63.5q116 -183 435 -709.5t368 -599.5l-311 -188q-13 23 -71 129.5t-100 182t-52 89.5l-656 -31 q-118 -269 -172 -372zM594 555l442 20q-22 43 -115 220.5t-108 208.5q-2 -5 -219 -449zM729 1622q0 -42 27 -67t67 -25q42 0 71.5 25.5t29.5 74.5q0 38 -27 63t-70 25q-38 0 -68 -25t-30 -71z" />
<glyph unicode="&#xc6;" horiz-adv-x="1966" d="M-8 160q31 42 412 595t481 691q84 0 460 15.5t422 21.5l9 -262q-34 0 -230 -5.5t-213 -5.5v-456q77 0 377 18l4 -250q-28 0 -193 1t-188 1v-272q8 0 77 -0.5t131.5 -1t139 1t119.5 4.5l8 -276q-40 0 -412 10t-386 10q6 141 6 360v154l-438 -14q-18 -29 -158 -260 t-166 -273zM698 713l318 16v465h-12q-75 -112 -185.5 -289t-120.5 -192z" />
<glyph unicode="&#xc7;" horiz-adv-x="1333" d="M88 580q0 104 37 209.5t118 211.5t198 197t289.5 165t379.5 116l66 -308q-328 -50 -518.5 -201t-190.5 -345q0 -157 143 -263t402 -106q110 0 213 18l20 -288q-129 -19 -256 -19q-129 0 -225 17l-62 -105q62 -16 107 -61.5t45 -104.5q0 -89 -106 -151t-273 -76l-20 119 q83 3 142 32.5t62 81.5q0 39 -40.5 70.5t-102.5 50.5l96 174q-113 31 -204 82t-149.5 109t-98 125t-56 129t-16.5 121z" />
<glyph unicode="&#xc8;" horiz-adv-x="1232" d="M250 0q6 109 6 594v274q0 425 -6 578q62 0 394 16t390 21l8 -264q-39 0 -234 -5.5t-208 -5.5v-372q35 0 173 6.5t202 11.5l6 -258q-25 0 -192.5 4t-188.5 4v-350q392 0 467 6l8 -280q-24 0 -403 10t-422 10zM367 1749l112 182l314 -241l-72 -113z" />
<glyph unicode="&#xc9;" horiz-adv-x="1232" d="M250 0q6 109 6 594v274q0 425 -6 578q62 0 394 16t390 21l8 -264q-39 0 -234 -5.5t-208 -5.5v-372q35 0 173 6.5t202 11.5l6 -258q-25 0 -192.5 4t-188.5 4v-350q392 0 467 6l8 -280q-24 0 -403 10t-422 10zM483 1690l322 241l108 -182l-360 -174z" />
<glyph unicode="&#xca;" horiz-adv-x="1232" d="M250 0q6 109 6 594v274q0 425 -6 578q62 0 394 16t390 21l8 -264q-39 0 -234 -5.5t-208 -5.5v-372q35 0 173 6.5t202 11.5l6 -258q-25 0 -192.5 4t-188.5 4v-350q392 0 467 6l8 -280q-24 0 -403 10t-422 10zM346 1694l320 204l301 -204l-99 -135l-211 163l-223 -163z" />
<glyph unicode="&#xcb;" horiz-adv-x="1232" d="M250 0q6 109 6 594v274q0 425 -6 578q62 0 394 16t390 21l8 -264q-39 0 -234 -5.5t-208 -5.5v-372q35 0 173 6.5t202 11.5l6 -258q-25 0 -192.5 4t-188.5 4v-350q392 0 467 6l8 -280q-24 0 -403 10t-422 10zM258 1755l156 156l157 -156l-157 -156zM721 1755l156 156 l157 -156l-157 -156z" />
<glyph unicode="&#xcc;" horiz-adv-x="860" d="M141 1729l113 182l313 -242l-71 -113zM248 1446h364q-8 -148 -8 -606v-222q0 -430 8 -618h-362q6 135 6 623v221q0 36 -3.5 302.5t-4.5 299.5z" />
<glyph unicode="&#xcd;" horiz-adv-x="860" d="M248 1446h364q-8 -148 -8 -606v-222q0 -430 8 -618h-362q6 135 6 623v221q0 36 -3.5 302.5t-4.5 299.5zM274 1669l322 242l109 -182l-361 -175z" />
<glyph unicode="&#xce;" horiz-adv-x="860" d="M121 1694l319 204l301 -204l-98 -135l-211 163l-223 -163zM248 1446h364q-8 -148 -8 -606v-222q0 -430 8 -618h-362q6 135 6 623v221q0 36 -3.5 302.5t-4.5 299.5z" />
<glyph unicode="&#xcf;" horiz-adv-x="860" d="M43 1735l156 155l157 -155l-157 -156zM248 1446h364q-8 -148 -8 -606v-222q0 -430 8 -618h-362q6 135 6 623v221q0 36 -3.5 302.5t-4.5 299.5zM506 1735l156 155l157 -155l-157 -156z" />
<glyph unicode="&#xd0;" horiz-adv-x="1699" d="M55 821q72 0 201 6v74q0 474 -10 545q450 0 678 -31q123 -16 224 -45.5t170.5 -64.5t123 -78.5t84 -85.5t50 -88.5t26 -83.5t6.5 -74q0 -133 -45 -251.5t-123.5 -208.5t-185.5 -165t-229 -126t-256.5 -86.5t-266 -51.5t-258.5 -16q5 59 8.5 304t3.5 343q-185 -9 -193 -10 zM598 289q170 18 314 93t230.5 194t86.5 255q0 96 -48.5 167t-136.5 112t-199 60t-247 18v-346q180 8 279 14l-3 -192q-40 0 -276 -11v-364z" />
<glyph unicode="&#xd1;" horiz-adv-x="1849" d="M186 0q10 132 39 707q31 634 41 780l17 6q129 -103 557.5 -479t494.5 -439q0 71 3.5 448t4.5 433l324 -10q-21 -312 -39 -692q-23 -429 -35 -789l-16 -6q-113 80 -571 482.5t-482 435.5h-4q0 -12 -4.5 -431.5t-3.5 -459.5zM623 1608q33 86 88.5 141t115.5 55 q17 0 34 -2.5t29.5 -5t30 -9t25 -9.5t26 -11t23.5 -10q70 -28 109 -28q60 3 110 90l117 -64q-37 -92 -90 -141t-108 -49q-24 -1 -49 4t-38.5 9.5t-40.5 15.5t-34 14q-76 32 -123 32q-61 0 -109 -90z" />
<glyph unicode="&#xd2;" horiz-adv-x="1789" d="M98 674q0 120 35 236.5t106.5 219.5t170.5 180.5t236 123t294 45.5q222 0 391 -84t265 -250t96 -395q0 -65 -13.5 -135.5t-44.5 -147.5t-76.5 -148t-115 -136t-154.5 -112.5t-200.5 -75.5t-247.5 -28q-169 1 -309.5 55.5t-235 149.5t-146 224t-51.5 278zM481 694 q0 -213 111 -338t287 -125q60 0 118.5 18t114.5 58t99 98t69 144t27 190q1 225 -112 350t-284 125q-184 0 -307 -143.5t-123 -376.5zM606 1729l113 182l313 -242l-71 -113z" />
<glyph unicode="&#xd3;" horiz-adv-x="1789" d="M98 674q0 120 35 236.5t106.5 219.5t170.5 180.5t236 123t294 45.5q222 0 391 -84t265 -250t96 -395q0 -65 -13.5 -135.5t-44.5 -147.5t-76.5 -148t-115 -136t-154.5 -112.5t-200.5 -75.5t-247.5 -28q-169 1 -309.5 55.5t-235 149.5t-146 224t-51.5 278zM481 694 q0 -213 111 -338t287 -125q60 0 118.5 18t114.5 58t99 98t69 144t27 190q1 225 -112 350t-284 125q-184 0 -307 -143.5t-123 -376.5zM762 1669l321 242l109 -182l-361 -175z" />
<glyph unicode="&#xd4;" horiz-adv-x="1789" d="M98 674q0 120 35 236.5t106.5 219.5t170.5 180.5t236 123t294 45.5q222 0 391 -84t265 -250t96 -395q0 -65 -13.5 -135.5t-44.5 -147.5t-76.5 -148t-115 -136t-154.5 -112.5t-200.5 -75.5t-247.5 -28q-169 1 -309.5 55.5t-235 149.5t-146 224t-51.5 278zM481 694 q0 -213 111 -338t287 -125q60 0 118.5 18t114.5 58t99 98t69 144t27 190q1 225 -112 350t-284 125q-184 0 -307 -143.5t-123 -376.5zM586 1694l319 204l301 -204l-98 -135l-211 163l-223 -163z" />
<glyph unicode="&#xd5;" horiz-adv-x="1789" d="M98 674q0 120 35 236.5t106.5 219.5t170.5 180.5t236 123t294 45.5q222 0 391 -84t265 -250t96 -395q0 -65 -13.5 -135.5t-44.5 -147.5t-76.5 -148t-115 -136t-154.5 -112.5t-200.5 -75.5t-247.5 -28q-169 1 -309.5 55.5t-235 149.5t-146 224t-51.5 278zM481 694 q0 -213 111 -338t287 -125q60 0 118.5 18t114.5 58t99 98t69 144t27 190q1 225 -112 350t-284 125q-184 0 -307 -143.5t-123 -376.5zM543 1659q33 86 89 141t116 55q17 0 34 -2.5t29.5 -5t29.5 -8.5t25 -9.5t25.5 -11.5t23.5 -10q70 -28 109 -28q61 3 111 90l116 -64 q-37 -92 -90 -141t-108 -49q-24 -1 -49 4t-38.5 9.5t-40.5 15.5t-34 14q-79 33 -123 33q-61 0 -109 -90z" />
<glyph unicode="&#xd6;" horiz-adv-x="1789" d="M98 674q0 120 35 236.5t106.5 219.5t170.5 180.5t236 123t294 45.5q222 0 391 -84t265 -250t96 -395q0 -65 -13.5 -135.5t-44.5 -147.5t-76.5 -148t-115 -136t-154.5 -112.5t-200.5 -75.5t-247.5 -28q-169 1 -309.5 55.5t-235 149.5t-146 224t-51.5 278zM481 694 q0 -213 111 -338t287 -125q60 0 118.5 18t114.5 58t99 98t69 144t27 190q1 225 -112 350t-284 125q-184 0 -307 -143.5t-123 -376.5zM508 1735l156 155l157 -155l-157 -156zM971 1735l155 155l158 -155l-158 -156z" />
<glyph unicode="&#xd7;" horiz-adv-x="1220" d="M82 135l393 404l-393 401l139 137l389 -399l389 399l140 -137l-394 -401l394 -404l-138 -135l-391 401l-391 -401z" />
<glyph unicode="&#xd8;" horiz-adv-x="1789" d="M88 66q137 137 170 157q-79 94 -119.5 211.5t-40.5 237.5q0 121 35.5 238.5t107 220t169.5 180.5t232.5 123t287.5 45q292 0 452 -129q20 20 93.5 92t83.5 82l143 -142q-22 -22 -83 -78.5t-85 -76.5q78 -90 118 -212t40 -253q0 -67 -13 -139t-44 -150.5t-76 -150 t-114.5 -137t-155.5 -113.5t-202.5 -76.5t-250.5 -28.5q-252 0 -441 131q-12 -14 -85 -87t-85 -87zM481 692q0 -149 31 -227q83 95 330 338t332 317q-41 46 -111.5 70t-149.5 24q-130 0 -230 -73.5t-151 -191.5t-51 -257zM614 326q111 -95 271 -95q59 0 117 18t113.5 58.5 t98 99.5t68.5 147t27 194q0 138 -35 235q-74 -89 -320.5 -333t-339.5 -324z" />
<glyph unicode="&#xd9;" horiz-adv-x="1724" d="M180 1022v111q0 53 1 169t1 134h365q-12 -79 -12 -349v-139q0 -244 19 -367.5t75 -203.5q85 -125 245 -125q162 0 250 135q52 79 64 204.5t12 448.5v76q0 62 -2 130.5t-4.5 132.5t-3.5 87h360q0 -8 1 -133t1 -221v-94q0 -327 -34.5 -511t-143.5 -314q-183 -226 -526 -226 q-366 0 -535 252q-52 79 -79 166.5t-40.5 237.5t-13.5 399zM573 1729l113 182l313 -242l-71 -113z" />
<glyph unicode="&#xda;" horiz-adv-x="1724" d="M180 1022v111q0 53 1 169t1 134h365q-12 -79 -12 -349v-139q0 -244 19 -367.5t75 -203.5q85 -125 245 -125q162 0 250 135q52 79 64 204.5t12 448.5v76q0 62 -2 130.5t-4.5 132.5t-3.5 87h360q0 -8 1 -133t1 -221v-94q0 -327 -34.5 -511t-143.5 -314q-183 -226 -526 -226 q-366 0 -535 252q-52 79 -79 166.5t-40.5 237.5t-13.5 399zM729 1669l322 242l108 -182l-360 -175z" />
<glyph unicode="&#xdb;" horiz-adv-x="1724" d="M180 1022v111q0 53 1 169t1 134h365q-12 -79 -12 -349v-139q0 -244 19 -367.5t75 -203.5q85 -125 245 -125q162 0 250 135q52 79 64 204.5t12 448.5v76q0 62 -2 130.5t-4.5 132.5t-3.5 87h360q0 -8 1 -133t1 -221v-94q0 -327 -34.5 -511t-143.5 -314q-183 -226 -526 -226 q-366 0 -535 252q-52 79 -79 166.5t-40.5 237.5t-13.5 399zM561 1694l320 204l301 -204l-99 -135l-211 163l-223 -163z" />
<glyph unicode="&#xdc;" horiz-adv-x="1724" d="M180 1022v111q0 53 1 169t1 134h365q-12 -79 -12 -349v-139q0 -244 19 -367.5t75 -203.5q85 -125 245 -125q162 0 250 135q52 79 64 204.5t12 448.5v76q0 62 -2 130.5t-4.5 132.5t-3.5 87h360q0 -8 1 -133t1 -221v-94q0 -327 -34.5 -511t-143.5 -314q-183 -226 -526 -226 q-366 0 -535 252q-52 79 -79 166.5t-40.5 237.5t-13.5 399zM494 1735l155 155l158 -155l-158 -156zM956 1735l156 155l158 -155l-158 -156z" />
<glyph unicode="&#xdd;" horiz-adv-x="1523" d="M51 1165l137 314q99 -44 194 -104t155 -122q166 -178 225 -376h12q68 192 236 364q73 75 175.5 141t200.5 97l113 -314q-85 -21 -177.5 -73t-166.5 -125q-104 -101 -168.5 -244.5t-64.5 -312.5v-158q0 -27 3.5 -125.5t6.5 -126.5h-367q10 235 10 291v117q0 188 -74 344 t-190 258q-122 108 -260 155zM668 1669l321 242l109 -182l-361 -175z" />
<glyph unicode="&#xde;" horiz-adv-x="1396" d="M246 0q3 62 6.5 335.5t3.5 391.5v225q0 26 -3 253t-3 241h350q-6 -89 -6 -186v-48q166 0 303 -28q88 -18 158.5 -48t125.5 -76t85 -112t30 -149q2 -95 -44.5 -184t-134.5 -162.5t-223 -126.5t-300 -74v-47q0 -162 4 -205h-352zM594 477q51 6 99 20t94 38.5t80 56.5 t54.5 78t20.5 100q0 26 -6.5 51.5t-28.5 57t-58 55t-102 40t-153 17.5v-514z" />
<glyph unicode="&#xdf;" horiz-adv-x="2043" d="M102 829q0 103 89.5 196.5t251 158.5t358.5 82l45 -248q-80 -2 -146.5 -11t-123.5 -26t-89 -45t-32 -66q0 -21 13.5 -39.5t39 -34t54 -29t67.5 -30.5q16 -7 24 -10q122 -57 169 -93q106 -79 106 -192q0 -77 -44.5 -151.5t-131 -140t-229 -114t-322.5 -69.5l-47 244 q78 4 148.5 15.5t132.5 31t99 51t37 70.5q0 43 -40 74t-154 82q-60 28 -101.5 52.5t-85 60.5t-66 81.5t-22.5 99.5zM1124 829q0 103 89.5 196.5t250.5 158.5t357 82l45 -248q-80 -2 -146.5 -11t-122.5 -26t-88 -45t-32 -66q0 -21 12.5 -39t41.5 -35.5t52.5 -29t68.5 -30.5 l7.5 -3t6.5 -3t7 -3q122 -57 169 -93q106 -79 106 -192q0 -77 -44.5 -151.5t-131 -140t-228 -114t-321.5 -69.5l-47 244q77 4 147.5 15.5t132.5 31t98.5 51t36.5 70.5q0 43 -39 74t-153 82q-60 28 -101.5 52.5t-85 60.5t-66 81.5t-22.5 99.5z" />
<glyph unicode="&#xe0;" horiz-adv-x="1525" d="M12 98q612 1045 715 1194h25q112 -161 417 -640.5t342 -532.5l-286 -168q-19 33 -65.5 112t-85 144t-42.5 72l-588 -25q-4 -9 -35 -71.5t-65 -131.5t-49 -102zM481 1548l109 172l297 -229l-68 -107zM543 471l385 16q-86 168 -195 361q-19 -34 -190 -377z" />
<glyph unicode="&#xe1;" horiz-adv-x="1525" d="M12 98q612 1045 715 1194h25q112 -161 417 -640.5t342 -532.5l-286 -168q-19 33 -65.5 112t-85 144t-42.5 72l-588 -25q-4 -9 -35 -71.5t-65 -131.5t-49 -102zM543 471l385 16q-86 168 -195 361q-19 -34 -190 -377zM635 1491l305 229l104 -172l-344 -166z" />
<glyph unicode="&#xe2;" horiz-adv-x="1525" d="M12 98q612 1045 715 1194h25q112 -161 417 -640.5t342 -532.5l-286 -168q-19 33 -65.5 112t-85 144t-42.5 72l-588 -25q-4 -9 -35 -71.5t-65 -131.5t-49 -102zM463 1520l303 194l287 -194l-95 -129l-200 157l-211 -157zM543 471l385 16q-86 168 -195 361 q-19 -34 -190 -377z" />
<glyph unicode="&#xe3;" horiz-adv-x="1525" d="M12 98q612 1045 715 1194h25q112 -161 417 -640.5t342 -532.5l-286 -168q-19 33 -65.5 112t-85 144t-42.5 72l-588 -25q-4 -9 -35 -71.5t-65 -131.5t-49 -102zM422 1456q32 82 84.5 135t109.5 54q16 0 33 -2.5t28 -4.5t29 -8t24 -8.5t25 -10.5t21 -9q63 -29 105 -29 q56 2 102 86l113 -60q-36 -87 -87 -134.5t-102 -47.5q-22 -1 -45.5 3t-37.5 8.5t-38.5 14.5t-33.5 13q-72 33 -115 33q-62 0 -102 -86zM543 471l385 16q-86 168 -195 361q-19 -34 -190 -377z" />
<glyph unicode="&#xe4;" horiz-adv-x="1525" d="M12 98q612 1045 715 1194h25q112 -161 417 -640.5t342 -532.5l-286 -168q-19 33 -65.5 112t-85 144t-42.5 72l-588 -25q-4 -9 -35 -71.5t-65 -131.5t-49 -102zM377 1559l149 149l150 -149l-150 -150zM543 471l385 16q-86 168 -195 361q-19 -34 -190 -377zM840 1559 l149 149l150 -149l-150 -150z" />
<glyph unicode="&#xe5;" horiz-adv-x="1525" d="M12 98q612 1045 715 1194h25q112 -161 417 -640.5t342 -532.5l-286 -168q-19 33 -65.5 112t-85 144t-42.5 72l-588 -25q-4 -9 -35 -71.5t-65 -131.5t-49 -102zM522 1563q1 86 67.5 137t170.5 51q116 0 172.5 -45t56.5 -119q0 -90 -68 -141t-178 -51h-2q-98 0 -158.5 45 t-60.5 123zM543 471l385 16q-86 168 -195 361q-19 -34 -190 -377zM664 1571q0 -40 26 -64t64 -24h2q39 0 66.5 24t27.5 70q0 37 -25.5 60.5t-66.5 23.5q-36 0 -65 -23.5t-29 -66.5z" />
<glyph unicode="&#xe6;" horiz-adv-x="1779" d="M-29 137q17 22 364 494.5t445 597.5q67 0 431 13.5t407 17.5l6 -234q-26 0 -220 -4t-208 -4v-328q32 0 172.5 7t196.5 12l4 -228q-22 0 -188 3t-185 3v-266q345 0 451 6l8 -245q-38 0 -397 9t-371 9q6 123 6 307v66l-408 -8q-26 -38 -127 -192.5t-131 -203.5zM596 561 l297 12v426h-10q-221 -332 -287 -438z" />
<glyph unicode="&#xe7;" horiz-adv-x="1206" d="M86 492q0 90 34 181t108 182t180.5 168t262 139t341.5 95l59 -272q-288 -42 -451 -165.5t-163 -289.5q0 -129 120.5 -210.5t352.5 -81.5q96 0 186 12l19 -264q-99 -15 -226 -15q-85 0 -149 6l-58 -94q63 -16 106.5 -58.5t43.5 -100.5q0 -85 -100 -144.5t-258 -71.5 l-21 113q80 3 137 31.5t58 79.5q0 36 -39.5 66t-98.5 46l88 154q-113 23 -205 65t-151.5 93t-100 110.5t-58 115.5t-17.5 110z" />
<glyph unicode="&#xe8;" horiz-adv-x="1122" d="M219 0q4 92 4 506v231q0 13 -2 241t-2 251q62 0 366 13t373 18l9 -238q-42 0 -223.5 -5t-192.5 -5v-295q35 0 163 5.5t191 10.5l4 -233q-28 0 -183.5 3t-174.5 3v-279q376 0 438 4l6 -249q-34 0 -384.5 9t-391.5 9zM330 1548l108 172l297 -229l-67 -107z" />
<glyph unicode="&#xe9;" horiz-adv-x="1122" d="M219 0q4 92 4 506v231q0 13 -2 241t-2 251q62 0 366 13t373 18l9 -238q-42 0 -223.5 -5t-192.5 -5v-295q35 0 163 5.5t191 10.5l4 -233q-28 0 -183.5 3t-174.5 3v-279q376 0 438 4l6 -249q-34 0 -384.5 9t-391.5 9zM473 1491l305 229l105 -172l-344 -166z" />
<glyph unicode="&#xea;" horiz-adv-x="1122" d="M219 0q4 92 4 506v231q0 13 -2 241t-2 251q62 0 366 13t373 18l9 -238q-42 0 -223.5 -5t-192.5 -5v-295q35 0 163 5.5t191 10.5l4 -233q-28 0 -183.5 3t-174.5 3v-279q376 0 438 4l6 -249q-34 0 -384.5 9t-391.5 9zM301 1520l303 194l287 -194l-94 -129l-201 157 l-211 -157z" />
<glyph unicode="&#xeb;" horiz-adv-x="1122" d="M195 1559l149 149l150 -149l-150 -150zM219 0q4 92 4 506v231q0 13 -2 241t-2 251q62 0 366 13t373 18l9 -238q-42 0 -223.5 -5t-192.5 -5v-295q35 0 163 5.5t191 10.5l4 -233q-28 0 -183.5 3t-174.5 3v-279q376 0 438 4l6 -249q-34 0 -384.5 9t-391.5 9zM657 1559 l150 149l149 -149l-149 -150z" />
<glyph unicode="&#xec;" horiz-adv-x="780" d="M119 1548l108 172l297 -229l-67 -107zM215 1229h350q-8 -124 -8 -514v-189q0 -362 8 -526h-348q4 152 4 528v189q0 38 -2.5 261.5t-3.5 250.5z" />
<glyph unicode="&#xed;" horiz-adv-x="780" d="M215 1229h350q-8 -124 -8 -514v-189q0 -362 8 -526h-348q4 152 4 528v189q0 38 -2.5 261.5t-3.5 250.5zM283 1491l305 229l104 -172l-344 -166z" />
<glyph unicode="&#xee;" horiz-adv-x="780" d="M111 1520l303 194l286 -194l-94 -129l-200 157l-211 -157zM215 1229h350q-8 -124 -8 -514v-189q0 -362 8 -526h-348q4 152 4 528v189q0 38 -2.5 261.5t-3.5 250.5z" />
<glyph unicode="&#xef;" horiz-adv-x="780" d="M4 1559l150 149l149 -149l-149 -150zM215 1229h350q-8 -124 -8 -514v-189q0 -362 8 -526h-348q4 152 4 528v189q0 38 -2.5 261.5t-3.5 250.5zM467 1559l149 149l150 -149l-150 -150z" />
<glyph unicode="&#xf0;" horiz-adv-x="1513" d="M51 702q143 6 176 7v57q0 398 -8 463q412 0 608 -21q112 -12 203 -36.5t152 -54.5t107 -69.5t71 -76t40.5 -79.5t20 -74.5t4.5 -65.5q0 -116 -36.5 -216.5t-101.5 -177.5t-155 -139.5t-196 -105t-226 -71t-243 -40.5t-250 -10q3 32 5 135t3 223t2 146v43q-39 -1 -97 -4.5 t-73 -4.5zM555 246q233 22 373.5 145t140.5 311q0 86 -37.5 146.5t-108.5 94t-160.5 48t-207.5 13.5v-283q206 10 252 12l-2 -170q-87 -2 -250 -10v-307z" />
<glyph unicode="&#xf1;" horiz-adv-x="1613" d="M158 0q7 72 37.5 629.5t35.5 634.5l23 6q120 -95 469 -387t426 -359h4q0 29 -1 212t-1.5 308t0.5 193l311 -8q-20 -251 -47 -893q-3 -78 -10 -206t-8 -161l-19 -8q-61 51 -284 233.5t-412 337t-209 173.5q1 -34 1 -362t1 -355zM498 1456q32 82 84.5 135t109.5 54 q16 0 33 -2.5t28 -4.5t29 -8t24 -8.5t25 -10.5t21 -9q63 -29 104 -29q57 3 103 86l112 -60q-36 -87 -86.5 -134.5t-101.5 -47.5q-22 -1 -45.5 3t-38 8.5t-39 14.5t-33.5 13q-72 33 -114 33q-33 0 -59.5 -25t-43.5 -61z" />
<glyph unicode="&#xf2;" horiz-adv-x="1630" d="M92 559q0 108 31 209.5t95.5 190t154.5 155t216.5 105t274.5 38.5q309 0 491.5 -161t182.5 -443q0 -86 -23 -174.5t-80 -181t-142 -164t-221 -117t-304 -45.5h-2q-132 0 -244 33t-190 90t-133 132.5t-81 159.5t-26 173zM463 586q0 -179 90.5 -284t234.5 -105 q165 0 272 116.5t107 327.5q0 188 -90.5 289.5t-236.5 101.5q-115 0 -202 -61t-131 -161.5t-44 -223.5zM535 1548l108 172l297 -229l-68 -107z" />
<glyph unicode="&#xf3;" horiz-adv-x="1630" d="M92 559q0 108 31 209.5t95.5 190t154.5 155t216.5 105t274.5 38.5q309 0 491.5 -161t182.5 -443q0 -86 -23 -174.5t-80 -181t-142 -164t-221 -117t-304 -45.5h-2q-132 0 -244 33t-190 90t-133 132.5t-81 159.5t-26 173zM463 586q0 -179 90.5 -284t234.5 -105 q165 0 272 116.5t107 327.5q0 188 -90.5 289.5t-236.5 101.5q-115 0 -202 -61t-131 -161.5t-44 -223.5zM729 1491l305 229l105 -172l-344 -166z" />
<glyph unicode="&#xf4;" horiz-adv-x="1630" d="M92 559q0 108 31 209.5t95.5 190t154.5 155t216.5 105t274.5 38.5q309 0 491.5 -161t182.5 -443q0 -86 -23 -174.5t-80 -181t-142 -164t-221 -117t-304 -45.5h-2q-132 0 -244 33t-190 90t-133 132.5t-81 159.5t-26 173zM463 586q0 -179 90.5 -284t234.5 -105 q165 0 272 116.5t107 327.5q0 188 -90.5 289.5t-236.5 101.5q-115 0 -202 -61t-131 -161.5t-44 -223.5zM537 1520l303 194l286 -194l-94 -129l-201 157l-210 -157z" />
<glyph unicode="&#xf5;" horiz-adv-x="1630" d="M92 559q0 108 31 209.5t95.5 190t154.5 155t216.5 105t274.5 38.5q309 0 491.5 -161t182.5 -443q0 -86 -23 -174.5t-80 -181t-142 -164t-221 -117t-304 -45.5h-2q-132 0 -244 33t-190 90t-133 132.5t-81 159.5t-26 173zM463 586q0 -179 90.5 -284t234.5 -105 q165 0 272 116.5t107 327.5q0 188 -90.5 289.5t-236.5 101.5q-115 0 -202 -61t-131 -161.5t-44 -223.5zM506 1456q32 82 84.5 135t109.5 54q16 0 33 -2.5t28 -4.5t29 -8t24 -8.5t25 -10.5t21 -9q63 -29 105 -29q56 2 102 86l113 -60q-36 -87 -87 -134.5t-102 -47.5 q-22 -1 -45.5 3t-37.5 8.5t-38.5 14.5t-33.5 13q-72 33 -115 33q-33 0 -59.5 -25t-43.5 -61z" />
<glyph unicode="&#xf6;" horiz-adv-x="1630" d="M92 559q0 108 31 209.5t95.5 190t154.5 155t216.5 105t274.5 38.5q309 0 491.5 -161t182.5 -443q0 -86 -23 -174.5t-80 -181t-142 -164t-221 -117t-304 -45.5h-2q-132 0 -244 33t-190 90t-133 132.5t-81 159.5t-26 173zM451 1559l149 149l150 -149l-150 -150zM463 586 q0 -179 90.5 -284t234.5 -105q165 0 272 116.5t107 327.5q0 188 -90.5 289.5t-236.5 101.5q-115 0 -202 -61t-131 -161.5t-44 -223.5zM913 1559l150 149l149 -149l-149 -150z" />
<glyph unicode="&#xf7;" horiz-adv-x="1220" d="M82 451v192h1057v-192h-1057zM446 182q0 76 45 121t119 45q72 0 117.5 -45t46.5 -121q0 -74 -46.5 -120t-117.5 -46h-2q-71 0 -116.5 46t-45.5 120zM446 911q0 76 45 121t119 45q72 0 117.5 -45t46.5 -121q0 -74 -46.5 -120t-117.5 -46h-2q-71 0 -116.5 46t-45.5 120z " />
<glyph unicode="&#xf8;" horiz-adv-x="1624" d="M78 72q97 77 147 123q-135 150 -135 362q0 136 50 260t144.5 223t245.5 158t338 59q243 0 392 -104q30 29 85.5 85.5t65.5 66.5l135 -131q-86 -75 -147 -134q135 -150 135 -383q0 -86 -22 -174t-78.5 -182t-140.5 -165.5t-222 -118t-309 -46.5q-236 0 -400 107 q-67 -60 -157 -146zM438 578q0 -104 31 -170q401 378 590 563q-74 67 -221 67q-121 0 -213.5 -63t-139.5 -166.5t-47 -228.5v-2zM565 266q85 -76 223 -76q55 0 109 14.5t107 49.5t93 86t64.5 131t24.5 178v2q0 106 -27 183q-110 -112 -330.5 -319.5t-263.5 -248.5z" />
<glyph unicode="&#xf9;" horiz-adv-x="1538" d="M152 868v95q0 45 1 143.5t1 112.5h354q-10 -75 -10 -295v-117q0 -224 15 -327t65 -169q40 -54 87 -78t113 -24q130 0 211 113q46 65 57 170.5t11 392.5v63q0 54 -2 111.5t-4.5 112.5t-3.5 73h344q0 -7 1 -112.5t1 -186.5v-82q0 -274 -32 -430.5t-130 -269.5 q-169 -193 -477 -193q-327 0 -478 215q-70 99 -97 237.5t-27 444.5zM508 1548l108 172l297 -229l-67 -107z" />
<glyph unicode="&#xfa;" horiz-adv-x="1538" d="M152 868v95q0 45 1 143.5t1 112.5h354q-10 -75 -10 -295v-117q0 -224 15 -327t65 -169q40 -54 87 -78t113 -24q130 0 211 113q46 65 57 170.5t11 392.5v63q0 54 -2 111.5t-4.5 112.5t-3.5 73h344q0 -7 1 -112.5t1 -186.5v-82q0 -274 -32 -430.5t-130 -269.5 q-169 -193 -477 -193q-327 0 -478 215q-70 99 -97 237.5t-27 444.5zM682 1491l305 229l105 -172l-344 -166z" />
<glyph unicode="&#xfb;" horiz-adv-x="1538" d="M152 868v95q0 45 1 143.5t1 112.5h354q-10 -75 -10 -295v-117q0 -224 15 -327t65 -169q40 -54 87 -78t113 -24q130 0 211 113q46 65 57 170.5t11 392.5v63q0 54 -2 111.5t-4.5 112.5t-3.5 73h344q0 -7 1 -112.5t1 -186.5v-82q0 -274 -32 -430.5t-130 -269.5 q-169 -193 -477 -193q-327 0 -478 215q-70 99 -97 237.5t-27 444.5zM489 1520l304 194l286 -194l-94 -129l-201 157l-211 -157z" />
<glyph unicode="&#xfc;" horiz-adv-x="1538" d="M152 868v95q0 45 1 143.5t1 112.5h354q-10 -75 -10 -295v-117q0 -224 15 -327t65 -169q40 -54 87 -78t113 -24q130 0 211 113q46 65 57 170.5t11 392.5v63q0 54 -2 111.5t-4.5 112.5t-3.5 73h344q0 -7 1 -112.5t1 -186.5v-82q0 -274 -32 -430.5t-130 -269.5 q-169 -193 -477 -193q-327 0 -478 215q-70 99 -97 237.5t-27 444.5zM403 1559l150 149l149 -149l-149 -150zM866 1559l150 149l149 -149l-149 -150z" />
<glyph unicode="&#xfd;" horiz-adv-x="1288" d="M10 963l115 294q90 -32 177.5 -82t141.5 -104q147 -151 205 -330h8q69 190 211 320q69 64 163 119t186 82l90 -297q-72 -16 -153.5 -56.5t-147.5 -99.5q-91 -81 -146 -203.5t-55 -263.5v-127q0 -145 8 -215h-352q10 205 10 248v92q0 160 -64.5 289.5t-170.5 214.5 q-90 71 -226 119zM557 1491l305 229l105 -172l-344 -166z" />
<glyph unicode="&#xfe;" horiz-adv-x="1277" d="M215 -57q8 258 8 675v197q0 16 -2 221.5t-2 249.5h338q-6 -135 -6 -188v-31q113 0 254 -23q105 -16 191.5 -61.5t142 -123t55.5 -173.5q0 -87 -43.5 -169t-123 -150t-203 -114.5t-273.5 -59.5v-29q0 -131 2 -221h-338zM551 395q79 6 145 37.5t109 91.5t43 138 q0 35 -11 65.5t-40 63.5t-92 53.5t-154 21.5v-471z" />
<glyph unicode="&#xff;" horiz-adv-x="1288" d="M10 963l115 294q90 -32 177.5 -82t141.5 -104q147 -151 205 -330h8q69 190 211 320q69 64 163 119t186 82l90 -297q-72 -16 -153.5 -56.5t-147.5 -99.5q-91 -81 -146 -203.5t-55 -263.5v-127q0 -145 8 -215h-352q10 205 10 248v92q0 160 -64.5 289.5t-170.5 214.5 q-90 71 -226 119zM279 1559l149 149l150 -149l-150 -150zM741 1559l150 149l149 -149l-149 -150z" />
<glyph unicode="&#x152;" horiz-adv-x="2258" d="M98 676q0 125 37 244.5t108.5 220t167.5 176.5t221.5 119t264.5 43q247 0 383 -109h4v76q63 0 397.5 15.5t378.5 21.5l8 -262l-440 -11v-376q57 0 199 7t174 13l6 -258l-379 8v-352q13 0 88 -0.5t134.5 -1t131.5 1.5t111 6l8 -278q-15 0 -74.5 1.5t-157.5 4t-175 4.5 q-310 10 -406 10l-4 129h-8q-173 -162 -465 -162q-203 0 -365 88t-255 250.5t-93 370.5zM473 702q0 -214 109.5 -342.5t285.5 -128.5q190 0 319.5 137t129.5 357v51q0 191 -109 314.5t-282 123.5q-111 0 -200 -45t-143 -119.5t-82 -163.5t-28 -184z" />
<glyph unicode="&#x153;" horiz-adv-x="2037" d="M90 575q0 133 53.5 256.5t147 218t231 151t295.5 56.5q231 0 344 -104h4v76q57 0 363 13.5t346 17.5l8 -232l-401 -10v-305q50 0 180.5 6t159.5 10l6 -227l-346 8v-285q2 0 108.5 -1t188 0t127.5 5l8 -247q-86 0 -373 10q-340 8 -373 8v123h-8q-152 -152 -422 -152 q-138 0 -257.5 44t-205.5 122.5t-135 191.5t-49 246zM451 598q0 -181 95.5 -289t246.5 -108q170 0 283.5 114t113.5 301v43q0 163 -96.5 266t-251.5 103q-95 0 -171.5 -37.5t-123.5 -99.5t-71.5 -137.5t-24.5 -155.5z" />
<glyph unicode="&#x178;" horiz-adv-x="1523" d="M51 1165l137 314q99 -44 194 -104t155 -122q166 -178 225 -376h12q68 192 236 364q73 75 175.5 141t200.5 97l113 -314q-85 -21 -177.5 -73t-166.5 -125q-104 -101 -168.5 -244.5t-64.5 -312.5v-158q0 -27 3.5 -125.5t6.5 -126.5h-367q10 235 10 291v117q0 188 -74 344 t-190 258q-122 108 -260 155zM414 1735l155 155l158 -155l-158 -156zM877 1735l155 155l158 -155l-158 -156z" />
<glyph unicode="&#x2c6;" horiz-adv-x="1804" d="M592 1694l319 204l301 -204l-98 -135l-211 163l-223 -163z" />
<glyph unicode="&#x2dc;" horiz-adv-x="1804" d="M549 1628q33 86 89 141.5t116 55.5q17 0 34 -2.5t29.5 -5t30 -9t25 -9.5t26 -11t23.5 -10q4 -1 17 -6.5t17.5 -7.5t16 -5.5t18.5 -5t18 -3t21 -1.5q61 3 111 90l116 -63q-37 -92 -90 -141.5t-108 -49.5q-24 -1 -49 4t-38.5 9.5t-40.5 15.5t-34 14q-79 33 -123 33 q-60 0 -108 -90z" />
<glyph unicode="&#x2000;" horiz-adv-x="967" />
<glyph unicode="&#x2001;" horiz-adv-x="1935" />
<glyph unicode="&#x2002;" horiz-adv-x="967" />
<glyph unicode="&#x2003;" horiz-adv-x="1935" />
<glyph unicode="&#x2004;" horiz-adv-x="645" />
<glyph unicode="&#x2005;" horiz-adv-x="483" />
<glyph unicode="&#x2006;" horiz-adv-x="322" />
<glyph unicode="&#x2007;" horiz-adv-x="322" />
<glyph unicode="&#x2008;" horiz-adv-x="241" />
<glyph unicode="&#x2009;" horiz-adv-x="387" />
<glyph unicode="&#x200a;" horiz-adv-x="107" />
<glyph unicode="&#x2010;" horiz-adv-x="800" d="M68 844q92 -2 346.5 -3.5t312.5 -0.5l6 -224q-53 4 -315 -6t-340 -16z" />
<glyph unicode="&#x2011;" horiz-adv-x="800" d="M68 844q92 -2 346.5 -3.5t312.5 -0.5l6 -224q-53 4 -315 -6t-340 -16z" />
<glyph unicode="&#x2012;" horiz-adv-x="800" d="M68 844q92 -2 346.5 -3.5t312.5 -0.5l6 -224q-53 4 -315 -6t-340 -16z" />
<glyph unicode="&#x2013;" horiz-adv-x="1024" d="M0 594v231q226 -4 391 -4h246q23 0 196 2t191 2v-231q-33 4 -387 4h-246q-327 0 -391 -4z" />
<glyph unicode="&#x2014;" horiz-adv-x="2048" d="M0 594v231q226 -4 596 -4h860q110 0 249 1t236.5 2t106.5 1v-231q-33 4 -592 4h-860q-532 0 -596 -4z" />
<glyph unicode="&#x2018;" horiz-adv-x="411" d="M47 1382l211 97l119 -428l-119 -54z" />
<glyph unicode="&#x2019;" horiz-adv-x="411" d="M35 1051l119 428l211 -97l-211 -385z" />
<glyph unicode="&#x201a;" horiz-adv-x="411" d="M35 -166l119 428l211 -96l-211 -385z" />
<glyph unicode="&#x201c;" horiz-adv-x="727" d="M47 1360l178 119l187 -379l-105 -70zM367 1391l208 88l115 -430l-121 -52z" />
<glyph unicode="&#x201d;" horiz-adv-x="727" d="M37 1049l115 430l208 -88l-202 -394zM315 1100l187 379l178 -119l-260 -330z" />
<glyph unicode="&#x201e;" horiz-adv-x="727" d="M37 -168l115 430l208 -88l-202 -393zM315 -117l187 379l178 -119l-260 -329z" />
<glyph unicode="&#x2022;" horiz-adv-x="651" d="M92 801q137 69 273 166q18 -28 49.5 -78t49.5 -77.5t44 -64t51 -63.5q-132 -81 -319 -215q-9 20 -36.5 86.5t-39 93t-32.5 72t-40 80.5z" />
<glyph unicode="&#x2026;" horiz-adv-x="2048" d="M207 0v266h268v-266h-268zM889 0v266h268v-266h-268zM1571 0v266h268v-266h-268z" />
<glyph unicode="&#x202f;" horiz-adv-x="387" />
<glyph unicode="&#x2039;" horiz-adv-x="702" d="M98 692q27 34 168.5 202t179.5 218l140 -137q-4 -4 -55.5 -56.5t-79.5 -82t-65 -71t-52 -63.5q75 -83 250 -253l-138 -144q-29 36 -178 199.5t-170 187.5z" />
<glyph unicode="&#x203a;" horiz-adv-x="702" d="M117 442q4 4 55.5 56.5t79.5 82t65 71t52 63.5q-82 91 -250 254l137 143q29 -36 178 -199.5t170 -187.5q-27 -34 -168.5 -202t-179.5 -218z" />
<glyph unicode="&#x205f;" horiz-adv-x="483" />
<glyph unicode="&#x20ac;" d="M250 573q20 1 48 2t48 2t37 1q-2 10 -2 49q0 40 6 75q-10 -1 -57 -2.5t-76 -3.5l6 146q72 2 156 2q87 220 309 384t580 236l65 -278q-218 -28 -380.5 -112.5t-244.5 -211.5q65 4 271 15.5t268 15.5l-8 -156q-245 -7 -571 -22q-7 -34 -7 -66q0 -37 2 -57q541 17 568 18 l-8 -155q-355 0 -523 -4q47 -86 177.5 -133.5t310.5 -47.5q106 0 153 13l19 -260q-79 -17 -189 -17q-148 0 -272.5 25t-211.5 66t-154.5 98.5t-107.5 117.5t-63 129q-69 -6 -145 -8z" />
<glyph unicode="&#x2122;" horiz-adv-x="1495" d="M18 1280v174q21 -2 152 -6q59 -2 119 -2h78q190 0 266 8v-174q-87 6 -213 6v-80q0 -84 2.5 -193t5 -184.5t2.5 -78.5h-205q4 54 4 458v78q-94 0 -211 -6zM537 770q8 20 59.5 181.5t106.5 335.5t61 192l72 -4q13 -25 73.5 -184t79.5 -201q43 117 160 372l72 -6 q9 -23 106 -323t119 -349l-174 -61q-11 36 -54.5 198t-52.5 191h-8q-14 -32 -41 -90t-61 -130.5t-51 -109.5l-64 6q-39 84 -83 195t-52 129h-4q-39 -129 -92 -389z" />
<glyph unicode="&#x25fc;" horiz-adv-x="1269" d="M0 0v1270h1270v-1270h-1270z" />
<glyph unicode="&#xfb01;" horiz-adv-x="1865" d="M213 0q10 92 10 506v231q0 363 -6 492q80 0 752 24l8 -237l-422 -8v-320q30 0 387 17l6 -232l-393 4v-147q0 -305 4 -330h-346zM1298 1229h351q-9 -148 -9 -514v-189q0 -342 9 -526h-349q5 190 5 528v189q0 34 -3 259t-4 253z" />
<glyph unicode="&#xfb02;" horiz-adv-x="2138" d="M213 0q10 92 10 506v231q0 363 -6 492q82 0 754 24l8 -237l-424 -8v-320q28 0 389 17l4 -232l-393 4v-147q0 -305 4 -330h-346zM1298 0q9 104 9 506v231q0 33 -3 251t-4 241h355q-3 -34 -8 -245.5t-5 -365.5v-374q265 0 435 8l2 -270q-21 0 -369 9t-412 9z" />
</font>
</defs>
</svg>
